<svg width="364" height="498" viewBox="0 0 364 498" fill="none" xmlns="http://www.w3.org/2000/svg">
<path d="M5.736 3.432H26.536C36.392 3.432 41.32 8.104 41.32 14.888C41.32 19.304 38.632 22.952 34.792 24.488C39.976 25.768 43.368 29.672 43.368 35.56C43.368 43.624 37.48 49 28.968 49H5.736V3.432ZM13.544 9.896V22.44H24.424C30.376 22.44 33.384 20.776 33.384 16.168C33.384 10.472 29.224 9.896 24.68 9.896H13.544ZM13.544 28.2V42.472H25.512C30.888 42.472 35.368 41.192 35.368 35.368C35.368 29.096 30.568 28.2 25.384 28.2H13.544ZM67.1185 15.016C77.2305 15.016 83.6305 21.8 83.6305 32.488C83.6305 43.24 77.2305 50.024 67.1185 50.024C56.8145 50.024 50.2865 43.24 50.2865 32.488C50.2865 21.864 56.8785 15.016 67.1185 15.016ZM66.9905 20.776C61.2305 20.776 57.6465 25.256 57.6465 32.488C57.6465 39.912 61.1665 44.328 67.0545 44.328C72.8145 44.328 76.2705 39.848 76.2705 32.424C76.2705 25.192 72.7505 20.776 66.9905 20.776ZM131.68 31.656C130.848 42.728 123.232 50.088 111.84 50.088C98.976 50.088 90.528 40.616 90.528 26.216C90.528 13.288 98.4 2.408 112.224 2.408C121.312 2.408 129.76 7.4 131.296 17.96H123.36C122.272 12.456 117.984 9.192 112.096 9.192C102.496 9.192 98.592 17.832 98.592 26.216C98.592 34.664 102.304 43.304 112.032 43.304C119.456 43.304 122.848 38.376 123.68 31.656H131.68ZM155.083 15.016C165.195 15.016 171.595 21.8 171.595 32.488C171.595 43.24 165.195 50.024 155.083 50.024C144.779 50.024 138.251 43.24 138.251 32.488C138.251 21.864 144.843 15.016 155.083 15.016ZM154.955 20.776C149.195 20.776 145.611 25.256 145.611 32.488C145.611 39.912 149.131 44.328 155.019 44.328C160.779 44.328 164.235 39.848 164.235 32.424C164.235 25.192 160.715 20.776 154.955 20.776ZM186.621 15.976V20.84C189.373 16.872 192.637 15.08 197.565 15.08C205.181 15.08 208.765 19.496 208.765 26.984V49H201.469V29.8C201.469 25.256 200.893 21.16 195.069 21.16C190.653 21.16 187.005 23.592 187.005 31.208V49H179.709V15.976H186.621ZM248.267 36.52C247.243 44.648 241.355 49.832 233.099 49.832C223.051 49.832 216.843 42.792 216.843 32.808C216.843 21.928 223.243 14.952 233.291 14.952C241.739 14.952 247.179 19.432 248.011 27.048H240.779C239.947 22.888 237.323 20.584 233.355 20.584C227.723 20.584 224.267 25.064 224.267 32.424C224.267 39.72 227.531 44.072 233.099 44.072C237.451 44.072 240.331 41.384 241.099 36.52H248.267ZM285.366 38.696C283.702 45.928 277.814 50.088 270.39 50.088C260.214 50.088 254.134 42.728 254.134 32.872C254.134 22.504 260.854 15.016 270.134 15.016C279.798 15.016 285.814 22.12 285.814 33.512V34.28H261.43C261.622 40.936 264.886 44.712 270.518 44.712C274.55 44.712 276.918 42.92 278.39 38.696H285.366ZM278.518 29.416C278.07 23.848 274.87 20.456 270.07 20.456C265.27 20.456 262.262 23.592 261.558 29.416H278.518ZM300.256 15.976V20.392C302.56 16.68 306.72 15.016 311.008 15.016C320.16 15.016 326.048 21.928 326.048 32.616C326.048 43.048 320.288 49.832 311.392 49.832C306.912 49.832 303.264 48.296 300.64 44.648V61.224H293.408V15.976H300.256ZM309.536 20.904C303.776 20.904 300.384 25.256 300.384 32.488C300.384 39.656 303.84 44.008 309.664 44.008C315.232 44.008 318.688 39.656 318.688 32.616C318.688 25.448 315.168 20.904 309.536 20.904ZM350.453 15.976V21.288H343.797V38.696C343.797 41.832 343.733 43.432 347.573 43.432C348.597 43.432 349.365 43.432 350.453 43.304V49.064C348.277 49.32 347.381 49.32 345.525 49.32C335.925 49.32 336.501 44.52 336.501 37.032V21.288H330.997V15.976H336.501V6.056H343.797V15.976H350.453Z" fill="black"/>
<rect y="44.3983" width="360" height="453.435" fill="black"/>
</svg>
