<svg width="26" height="26" viewBox="0 0 26 26" fill="none" xmlns="http://www.w3.org/2000/svg">
<path d="M20.583 7.58317H17.333V6.49984C17.333 5.35057 16.8765 4.24837 16.0638 3.43571C15.2511 2.62305 14.1489 2.1665 12.9997 2.1665C11.8504 2.1665 10.7482 2.62305 9.93554 3.43571C9.12289 4.24837 8.66634 5.35057 8.66634 6.49984V7.58317H5.41634C5.12902 7.58317 4.85347 7.69731 4.65031 7.90047C4.44714 8.10364 4.33301 8.37919 4.33301 8.6665V20.5832C4.33301 21.4451 4.67542 22.2718 5.28491 22.8813C5.8944 23.4908 6.72105 23.8332 7.58301 23.8332H18.4163C19.2783 23.8332 20.1049 23.4908 20.7144 22.8813C21.3239 22.2718 21.6663 21.4451 21.6663 20.5832V8.6665C21.6663 8.37919 21.5522 8.10364 21.349 7.90047C21.1459 7.69731 20.8703 7.58317 20.583 7.58317ZM10.833 6.49984C10.833 5.9252 11.0613 5.3741 11.4676 4.96777C11.8739 4.56144 12.425 4.33317 12.9997 4.33317C13.5743 4.33317 14.1254 4.56144 14.5317 4.96777C14.9381 5.3741 15.1663 5.9252 15.1663 6.49984V7.58317H10.833V6.49984ZM19.4997 20.5832C19.4997 20.8705 19.3855 21.146 19.1824 21.3492C18.9792 21.5524 18.7037 21.6665 18.4163 21.6665H7.58301C7.29569 21.6665 7.02014 21.5524 6.81698 21.3492C6.61381 21.146 6.49967 20.8705 6.49967 20.5832V9.74984H8.66634V10.8332C8.66634 11.1205 8.78048 11.396 8.98364 11.5992C9.18681 11.8024 9.46236 11.9165 9.74967 11.9165C10.037 11.9165 10.3125 11.8024 10.5157 11.5992C10.7189 11.396 10.833 11.1205 10.833 10.8332V9.74984H15.1663V10.8332C15.1663 11.1205 15.2805 11.396 15.4836 11.5992C15.6868 11.8024 15.9624 11.9165 16.2497 11.9165C16.537 11.9165 16.8125 11.8024 17.0157 11.5992C17.2189 11.396 17.333 11.1205 17.333 10.8332V9.74984H19.4997V20.5832Z" fill="black"/>
</svg>
