<svg width="51" height="33" viewBox="0 0 51 33" fill="none" xmlns="http://www.w3.org/2000/svg">
<path d="M25.5 30.113C22.9289 31.5563 20.0044 32.3249 17.0224 32.3412C14.0405 32.3575 11.1069 31.6208 8.51875 30.2057C5.93059 28.7906 3.77968 26.7473 2.28376 24.2827C0.787836 21.8182 0 19.0197 0 16.1707C0 13.3217 0.787836 10.5233 2.28376 8.05871C3.77968 5.59412 5.93059 3.55087 8.51875 2.13578C11.1069 0.720683 14.0405 -0.0160117 17.0224 0.000263947C20.0044 0.0165396 22.9289 0.785208 25.5 2.22846C28.0711 0.785208 30.9956 0.0165396 33.9776 0.000263947C36.9595 -0.0160117 39.8931 0.720683 42.4813 2.13578C45.0694 3.55087 47.2203 5.59412 48.7162 8.05871C50.2122 10.5233 51 13.3217 51 16.1707C51 19.0197 50.2122 21.8182 48.7162 24.2827C47.2203 26.7473 45.0694 28.7906 42.4813 30.2057C39.8931 31.6208 36.9595 32.3575 33.9776 32.3412C30.9956 32.3249 28.0711 31.5563 25.5 30.113ZM29.4462 27.0472C31.312 27.7716 33.3355 28.0469 35.3387 27.8487C37.3419 27.6505 39.2634 26.985 40.9342 25.9107C42.6049 24.8364 43.9737 23.3862 44.9201 21.6878C45.8665 19.9894 46.3615 18.0948 46.3615 16.1707C46.3615 14.2466 45.8665 12.352 44.9201 10.6536C43.9737 8.95524 42.6049 7.50509 40.9342 6.43079C39.2634 5.35649 37.3419 4.69097 35.3387 4.49278C33.3355 4.2946 31.312 4.56983 29.4462 5.29425C32.2823 8.26793 33.8513 12.1477 33.8446 16.1707C33.8446 20.3574 32.1775 24.1763 29.4439 27.0472M21.5514 5.29425C19.6857 4.56983 17.6622 4.2946 15.659 4.49278C13.6558 4.69097 11.7343 5.35649 10.0635 6.43079C8.39275 7.50509 7.02395 8.95524 6.07757 10.6536C5.13118 12.352 4.63621 14.2466 4.63621 16.1707C4.63621 18.0948 5.13118 19.9894 6.07757 21.6878C7.02395 23.3862 8.39275 24.8364 10.0635 25.9107C11.7343 26.985 13.6558 27.6505 15.659 27.8487C17.6622 28.0469 19.6857 27.7716 21.5514 27.0472C18.7154 24.0735 17.1464 20.1937 17.1531 16.1707C17.1531 11.9841 18.8178 8.16511 21.5514 5.29425ZM25.5 7.76417C24.3241 8.85678 23.3898 10.1639 22.7526 11.6079C22.1153 13.052 21.7881 14.6036 21.7903 16.1707C21.7903 19.4669 23.2115 22.4441 25.5 24.5773C26.6759 23.4847 27.6102 22.1776 28.2474 20.7335C28.8847 19.2895 29.2119 17.7379 29.2097 16.1707C29.2119 14.6036 28.8847 13.052 28.2474 11.6079C27.6102 10.1639 26.6759 8.85678 25.5 7.76417Z" fill="#F3F1EB"/>
<path d="M12.589 18.5271V16.488C12.589 15.7062 12.1051 15.1965 11.2755 15.1965C10.8608 15.1965 10.4114 15.3324 10.1003 15.7743C9.85847 15.4004 9.51288 15.1965 8.99441 15.1965C8.64867 15.1965 8.30323 15.2984 8.0266 15.6723V15.2645H7.30078V18.5271H8.0266V16.7258C8.0266 16.1482 8.33771 15.8762 8.8217 15.8762C9.30537 15.8762 9.54752 16.1821 9.54752 16.7258V18.5271H10.2733V16.7258C10.2733 16.1482 10.6188 15.8762 11.0681 15.8762C11.5521 15.8762 11.7939 16.1821 11.7939 16.7258V18.5271H12.589ZM23.3379 15.2645H22.1629V14.2789H21.4371V15.2645H20.7804V15.9101H21.437V17.4056C21.437 18.1534 21.7481 18.5951 22.5776 18.5951C22.8888 18.5951 23.2342 18.4932 23.4763 18.3573L23.2688 17.7454C23.0615 17.8813 22.8196 17.9154 22.6468 17.9154C22.3012 17.9154 22.1629 17.7115 22.1629 17.3715V15.9101H23.3379V15.2645ZM29.4903 15.1964C29.0756 15.1964 28.7991 15.4004 28.6262 15.6723V15.2645H27.9004V18.5271H28.6262V16.6919C28.6262 16.1482 28.868 15.8423 29.3174 15.8423C29.4556 15.8423 29.6285 15.8763 29.7667 15.9102L29.9741 15.2306C29.8359 15.1965 29.6285 15.1964 29.4903 15.1964ZM20.1928 15.5365C19.8471 15.2985 19.3633 15.1967 18.8448 15.1967C18.0154 15.1967 17.4624 15.6045 17.4624 16.2502C17.4624 16.7941 17.8771 17.0998 18.603 17.2019L18.9485 17.2359C19.3288 17.3037 19.5361 17.4057 19.5361 17.5757C19.5361 17.8135 19.2597 17.9835 18.7757 17.9835C18.2918 17.9835 17.9116 17.8135 17.6696 17.6437L17.324 18.1874C17.7043 18.4593 18.2227 18.5952 18.741 18.5952C19.7088 18.5952 20.262 18.1535 20.262 17.5417C20.262 16.9639 19.8126 16.658 19.1213 16.5561L18.7757 16.5221C18.4646 16.488 18.2227 16.4202 18.2227 16.2163C18.2227 15.9783 18.4646 15.8424 18.8448 15.8424C19.2597 15.8424 19.6744 16.0122 19.8817 16.1143L20.1928 15.5365ZM39.479 15.1967C39.0642 15.1967 38.7877 15.4006 38.6148 15.6724V15.2646H37.889V18.5272H38.6148V16.692C38.6148 16.1483 38.8568 15.8424 39.306 15.8424C39.4444 15.8424 39.6173 15.8765 39.7555 15.9104L39.9629 15.2307C39.8246 15.1967 39.6173 15.1967 39.479 15.1967ZM30.2161 16.8959C30.2161 17.8815 30.9073 18.5952 31.9788 18.5952C32.4627 18.5952 32.8083 18.4933 33.1538 18.2215L32.8083 17.6437C32.5318 17.8476 32.2553 17.9495 31.9442 17.9495C31.3566 17.9495 30.9419 17.5417 30.9419 16.8959C30.9419 16.2843 31.3566 15.8763 31.9442 15.8424C32.2553 15.8424 32.5318 15.9443 32.8083 16.1483L33.1538 15.5705C32.8083 15.2985 32.4627 15.1967 31.9788 15.1967C30.9073 15.1967 30.2161 15.9104 30.2161 16.8959ZM36.9213 16.8959V15.2646H36.1955V15.6724C35.9535 15.3667 35.6079 15.1967 35.1586 15.1967C34.2254 15.1967 33.4996 15.9104 33.4996 16.8959C33.4996 17.8815 34.2254 18.5952 35.1586 18.5952C35.6424 18.5952 35.9882 18.4254 36.1955 18.1195V18.5272H36.9213V16.8959ZM34.2599 16.8959C34.2599 16.3182 34.6401 15.8424 35.2622 15.8424C35.8498 15.8424 36.2646 16.2843 36.2646 16.8959C36.2646 17.4737 35.8498 17.9495 35.2622 17.9495C34.6401 17.9154 34.2599 17.4737 34.2599 16.8959ZM25.5847 15.1967C24.6169 15.1967 23.9255 15.8763 23.9255 16.8959C23.9255 17.9156 24.6167 18.5952 25.6192 18.5952C26.103 18.5952 26.587 18.4593 26.9672 18.1535L26.6215 17.6437C26.345 17.8476 25.9994 17.9835 25.6538 17.9835C25.2045 17.9835 24.7551 17.7796 24.6514 17.2017H27.1054V16.93C27.1401 15.8763 26.518 15.1967 25.5847 15.1967ZM25.5845 15.8083C26.0337 15.8083 26.345 16.0804 26.4139 16.5902H24.6858C24.755 16.1483 25.0661 15.8083 25.5845 15.8083ZM43.5918 16.8959V13.9731H42.866V15.6724C42.624 15.3667 42.2784 15.1967 41.8291 15.1967C40.8959 15.1967 40.1701 15.9104 40.1701 16.8959C40.1701 17.8815 40.8959 18.5952 41.8291 18.5952C42.313 18.5952 42.6586 18.4254 42.866 18.1195V18.5272H43.5918V16.8959ZM40.9305 16.8959C40.9305 16.3182 41.3106 15.8424 41.9328 15.8424C42.5204 15.8424 42.9351 16.2843 42.9351 16.8959C42.9351 17.4737 42.5204 17.9495 41.9328 17.9495C41.3106 17.9154 40.9305 17.4737 40.9305 16.8959ZM16.6672 16.8959V15.2646H15.9414V15.6724C15.6994 15.3667 15.3538 15.1967 14.9044 15.1967C13.9712 15.1967 13.2454 15.9104 13.2454 16.8959C13.2454 17.8815 13.9712 18.5952 14.9044 18.5952C15.3884 18.5952 15.734 18.4254 15.9414 18.1195V18.5272H16.6672V16.8959ZM13.9712 16.8959C13.9712 16.3182 14.3515 15.8424 14.9735 15.8424C15.5611 15.8424 15.976 16.2843 15.976 16.8959C15.976 17.4737 15.5611 17.9495 14.9735 17.9495C14.3515 17.9154 13.9712 17.4737 13.9712 16.8959Z" fill="#F3F1EB"/>
</svg>
