<svg width="373" height="138" viewBox="0 0 373 138" fill="none" xmlns="http://www.w3.org/2000/svg">
<mask id="path-1-outside-1_2903_3" maskUnits="userSpaceOnUse" x="-3" y="-2" width="378" height="142" fill="black">
<rect fill="white" x="-3" y="-2" width="378" height="142"/>
<path d="M25 135H0.4L24.6 48.8C25.1333 46.9333 25.5333 45.2 25.8 43.6C26.0667 42 25.9333 40.6667 25.4 39.6C25 38.5333 23.8667 38 22 38C19.4667 38 17.1333 39.2667 15 41.8C13 44.2 10.8 48.6667 8.4 55.2L5 64.6H1.2L6.4 49.6C9.2 41.7333 12.8 36.3333 17.2 33.4C21.6 30.4667 26.4667 29 31.8 29C36.2 29 39.5333 29.8667 41.8 31.6C44.2 33.3333 45.7333 35.6 46.4 38.4C47.0667 41.0667 47.2 44.0667 46.8 47.4C46.4 50.6 45.8 53.8 45 57L25 135ZM32.4 98.6C37.3333 84.8667 42.0667 73.5333 46.6 64.6C51.1333 55.6667 55.5333 48.6 59.8 43.4C64.0667 38.0667 68.4667 34.3333 73 32.2C77.5333 30.0667 82.2667 29 87.2 29C93.7333 29 98.2667 30.4667 100.8 33.4C103.467 36.2 104.733 39.9333 104.6 44.6C104.6 49.1333 103.733 54 102 59.2L82.4 118C81.2 121.6 80.8667 124.333 81.4 126.2C81.9333 127.933 83.2667 128.8 85.4 128.8C87.4 128.8 89.4667 127.667 91.6 125.4C93.8667 123.133 96.2667 118.533 98.8 111.6L102 102.6H105.8L100.8 117.2C98.9333 122.8 96.5333 127.067 93.6 130C90.8 132.933 87.7333 134.933 84.4 136C81.2 137.2 78 137.8 74.8 137.8C71.3333 137.8 68.3333 137.2 65.8 136C63.4 134.933 61.5333 133.4 60.2 131.4C58.4667 128.867 57.7333 125.6 58 121.6C58.2667 117.6 59.3333 112.8 61.2 107.2L79.4 52.2C80.0667 50.0667 80.6 47.9333 81 45.8C81.4 43.5333 81.3333 41.6667 80.8 40.2C80.2667 38.6 78.8667 37.8 76.6 37.8C73.8 37.8 70.7333 39.4 67.4 42.6C64.0667 45.6667 60.6 50 57 55.6C53.4 61.2 49.8 67.7333 46.2 75.2C42.6 82.6667 39.1333 90.8 35.8 99.6C32.6 108.267 29.7333 117.267 27.2 126.6L32.4 98.6ZM138.141 91C144.407 88.6 150.141 86.1333 155.341 83.6C160.674 80.9333 165.141 78.1333 168.741 75.2C173.674 70.8 177.674 65.6667 180.741 59.8C183.807 53.8 185.341 47.2667 185.341 40.2C185.341 37.1333 185.074 35.1333 184.541 34.2C184.007 33.2667 183.207 32.8 182.141 32.8C179.074 32.8 175.741 34.2667 172.141 37.2C168.541 40.1333 165.007 44.2 161.541 49.4C158.074 54.4667 154.874 60.2 151.941 66.6C149.141 73 146.874 79.7333 145.141 86.8C143.407 93.8667 142.541 100.867 142.541 107.8C142.541 114.867 143.874 119.867 146.541 122.8C149.341 125.6 153.007 127 157.541 127C161.407 127 166.007 125.733 171.341 123.2C176.674 120.667 181.941 116.067 187.141 109.4L190.341 111C187.674 115.4 184.141 119.667 179.741 123.8C175.341 127.933 170.274 131.333 164.541 134C158.941 136.533 152.741 137.8 145.941 137.8C140.341 137.8 135.274 136.733 130.741 134.6C126.207 132.467 122.674 129.333 120.141 125.2C117.607 120.933 116.341 115.733 116.341 109.6C116.341 103.067 117.474 96.1333 119.741 88.8C122.007 81.3333 125.207 74.0667 129.341 67C133.607 59.9333 138.607 53.5333 144.341 47.8C150.207 42.0667 156.674 37.5333 163.741 34.2C170.807 30.7333 178.407 29 186.541 29C191.874 29 196.341 30.2667 199.941 32.8C203.541 35.2 205.341 38.9333 205.341 44C205.341 49.2 203.874 54.0667 200.941 58.6C198.007 63.1333 194.007 67.2667 188.941 71C184.007 74.7333 178.541 78.0667 172.541 81C166.674 83.9333 160.741 86.4667 154.741 88.6C148.741 90.7333 143.141 92.4667 137.941 93.8L138.141 91Z"/>
<path d="M300.152 61.8H278.352C276.752 49.2 268.152 45.4 255.952 45.4C244.352 45.4 237.552 49.8 237.552 57.4C237.552 67.8 247.352 68.6 263.952 72.4C281.952 76.6 303.952 81.2 303.952 104C303.952 124.8 286.552 138 258.952 138C229.752 138 213.752 125.6 212.552 102H234.352C235.552 115.6 245.152 121.4 259.352 121.4C272.752 121.4 281.552 115.6 281.552 106.4C281.552 96 269.952 94.2 256.952 91C233.352 85.2 214.752 82.2 214.752 60C214.752 40.4 230.552 28.8 256.952 28.8C280.552 28.8 300.152 38.4 300.152 61.8ZM372.463 31.8V48.4H351.663V102.8C351.663 112.6 351.463 117.6 363.463 117.6C366.663 117.6 369.063 117.6 372.463 117.2V135.2C365.663 136 362.862 136 357.063 136C327.063 136 328.863 121 328.863 97.6V48.4H311.663V31.8H328.863V0.799999H351.663V31.8H372.463Z"/>
</mask>
<path d="M25 135H0.4L24.6 48.8C25.1333 46.9333 25.5333 45.2 25.8 43.6C26.0667 42 25.9333 40.6667 25.4 39.6C25 38.5333 23.8667 38 22 38C19.4667 38 17.1333 39.2667 15 41.8C13 44.2 10.8 48.6667 8.4 55.2L5 64.6H1.2L6.4 49.6C9.2 41.7333 12.8 36.3333 17.2 33.4C21.6 30.4667 26.4667 29 31.8 29C36.2 29 39.5333 29.8667 41.8 31.6C44.2 33.3333 45.7333 35.6 46.4 38.4C47.0667 41.0667 47.2 44.0667 46.8 47.4C46.4 50.6 45.8 53.8 45 57L25 135ZM32.4 98.6C37.3333 84.8667 42.0667 73.5333 46.6 64.6C51.1333 55.6667 55.5333 48.6 59.8 43.4C64.0667 38.0667 68.4667 34.3333 73 32.2C77.5333 30.0667 82.2667 29 87.2 29C93.7333 29 98.2667 30.4667 100.8 33.4C103.467 36.2 104.733 39.9333 104.6 44.6C104.6 49.1333 103.733 54 102 59.2L82.4 118C81.2 121.6 80.8667 124.333 81.4 126.2C81.9333 127.933 83.2667 128.8 85.4 128.8C87.4 128.8 89.4667 127.667 91.6 125.4C93.8667 123.133 96.2667 118.533 98.8 111.6L102 102.6H105.8L100.8 117.2C98.9333 122.8 96.5333 127.067 93.6 130C90.8 132.933 87.7333 134.933 84.4 136C81.2 137.2 78 137.8 74.8 137.8C71.3333 137.8 68.3333 137.2 65.8 136C63.4 134.933 61.5333 133.4 60.2 131.4C58.4667 128.867 57.7333 125.6 58 121.6C58.2667 117.6 59.3333 112.8 61.2 107.2L79.4 52.2C80.0667 50.0667 80.6 47.9333 81 45.8C81.4 43.5333 81.3333 41.6667 80.8 40.2C80.2667 38.6 78.8667 37.8 76.6 37.8C73.8 37.8 70.7333 39.4 67.4 42.6C64.0667 45.6667 60.6 50 57 55.6C53.4 61.2 49.8 67.7333 46.2 75.2C42.6 82.6667 39.1333 90.8 35.8 99.6C32.6 108.267 29.7333 117.267 27.2 126.6L32.4 98.6ZM138.141 91C144.407 88.6 150.141 86.1333 155.341 83.6C160.674 80.9333 165.141 78.1333 168.741 75.2C173.674 70.8 177.674 65.6667 180.741 59.8C183.807 53.8 185.341 47.2667 185.341 40.2C185.341 37.1333 185.074 35.1333 184.541 34.2C184.007 33.2667 183.207 32.8 182.141 32.8C179.074 32.8 175.741 34.2667 172.141 37.2C168.541 40.1333 165.007 44.2 161.541 49.4C158.074 54.4667 154.874 60.2 151.941 66.6C149.141 73 146.874 79.7333 145.141 86.8C143.407 93.8667 142.541 100.867 142.541 107.8C142.541 114.867 143.874 119.867 146.541 122.8C149.341 125.6 153.007 127 157.541 127C161.407 127 166.007 125.733 171.341 123.2C176.674 120.667 181.941 116.067 187.141 109.4L190.341 111C187.674 115.4 184.141 119.667 179.741 123.8C175.341 127.933 170.274 131.333 164.541 134C158.941 136.533 152.741 137.8 145.941 137.8C140.341 137.8 135.274 136.733 130.741 134.6C126.207 132.467 122.674 129.333 120.141 125.2C117.607 120.933 116.341 115.733 116.341 109.6C116.341 103.067 117.474 96.1333 119.741 88.8C122.007 81.3333 125.207 74.0667 129.341 67C133.607 59.9333 138.607 53.5333 144.341 47.8C150.207 42.0667 156.674 37.5333 163.741 34.2C170.807 30.7333 178.407 29 186.541 29C191.874 29 196.341 30.2667 199.941 32.8C203.541 35.2 205.341 38.9333 205.341 44C205.341 49.2 203.874 54.0667 200.941 58.6C198.007 63.1333 194.007 67.2667 188.941 71C184.007 74.7333 178.541 78.0667 172.541 81C166.674 83.9333 160.741 86.4667 154.741 88.6C148.741 90.7333 143.141 92.4667 137.941 93.8L138.141 91Z" fill="#532926"/>
<path d="M300.152 61.8H278.352C276.752 49.2 268.152 45.4 255.952 45.4C244.352 45.4 237.552 49.8 237.552 57.4C237.552 67.8 247.352 68.6 263.952 72.4C281.952 76.6 303.952 81.2 303.952 104C303.952 124.8 286.552 138 258.952 138C229.752 138 213.752 125.6 212.552 102H234.352C235.552 115.6 245.152 121.4 259.352 121.4C272.752 121.4 281.552 115.6 281.552 106.4C281.552 96 269.952 94.2 256.952 91C233.352 85.2 214.752 82.2 214.752 60C214.752 40.4 230.552 28.8 256.952 28.8C280.552 28.8 300.152 38.4 300.152 61.8ZM372.463 31.8V48.4H351.663V102.8C351.663 112.6 351.463 117.6 363.463 117.6C366.663 117.6 369.063 117.6 372.463 117.2V135.2C365.663 136 362.862 136 357.063 136C327.063 136 328.863 121 328.863 97.6V48.4H311.663V31.8H328.863V0.799999H351.663V31.8H372.463Z" fill="#F8F7F5"/>
<path d="M25 135V137H26.5519L26.9373 135.497L25 135ZM0.4 135L-1.52556 134.459L-2.23881 137H0.4V135ZM24.6 48.8L22.6769 48.2505L22.6744 48.2594L24.6 48.8ZM25.4 39.6L23.5273 40.3022L23.5642 40.4005L23.6111 40.4944L25.4 39.6ZM15 41.8L13.4702 40.5117L13.4636 40.5196L15 41.8ZM8.4 55.2L6.52264 54.5104L6.51925 54.5197L8.4 55.2ZM5 64.6V66.6H6.4034L6.88075 65.2803L5 64.6ZM1.2 64.6L-0.689672 63.9449L-1.6101 66.6H1.2V64.6ZM6.4 49.6L4.51579 48.9293L4.51303 48.9371L4.51033 48.9449L6.4 49.6ZM17.2 33.4L18.3094 35.0641L18.3094 35.0641L17.2 33.4ZM41.8 31.6L40.5851 33.1887L40.6068 33.2053L40.629 33.2214L41.8 31.6ZM46.4 38.4L44.4544 38.8632L44.457 38.8742L44.4597 38.8851L46.4 38.4ZM46.8 47.4L48.7846 47.6481L48.7858 47.6383L46.8 47.4ZM45 57L46.9374 57.4968L46.9403 57.4851L45 57ZM32.4 98.6L30.5178 97.9239L30.4631 98.0759L30.4336 98.2348L32.4 98.6ZM46.6 64.6L48.3835 65.5051L48.3835 65.5051L46.6 64.6ZM59.8 43.4L61.3461 44.6686L61.354 44.6591L61.3617 44.6494L59.8 43.4ZM73 32.2L73.8516 34.0096L73.8516 34.0096L73 32.2ZM100.8 33.4L99.2864 34.7072L99.3182 34.7441L99.3517 34.7793L100.8 33.4ZM104.6 44.6L102.601 44.5429L102.6 44.5714V44.6H104.6ZM102 59.2L100.103 58.5675L100.103 58.5675L102 59.2ZM82.4 118L84.2974 118.632L84.2974 118.632L82.4 118ZM81.4 126.2L79.477 126.749L79.4825 126.769L79.4884 126.788L81.4 126.2ZM91.6 125.4L90.1858 123.986L90.1644 124.007L90.1436 124.029L91.6 125.4ZM98.8 111.6L100.679 112.286L100.682 112.278L100.684 112.27L98.8 111.6ZM102 102.6V100.6H100.588L100.116 101.93L102 102.6ZM105.8 102.6L107.692 103.248L108.599 100.6H105.8V102.6ZM100.8 117.2L98.9079 116.552L98.9052 116.56L98.9026 116.568L100.8 117.2ZM93.6 130L92.1858 128.586L92.1694 128.602L92.1533 128.619L93.6 130ZM84.4 136L83.7905 134.095L83.7437 134.11L83.6978 134.127L84.4 136ZM65.8 136L66.6562 134.193L66.6343 134.182L66.6123 134.172L65.8 136ZM60.2 131.4L61.8641 130.291L61.8574 130.281L61.8506 130.271L60.2 131.4ZM58 121.6L56.0044 121.467L56.0044 121.467L58 121.6ZM61.2 107.2L63.0974 107.832L63.0987 107.828L61.2 107.2ZM79.4 52.2L81.2987 52.8283L81.304 52.8125L81.309 52.7965L79.4 52.2ZM81 45.8L82.9657 46.1686L82.9677 46.1581L82.9696 46.1476L81 45.8ZM80.8 40.2L78.9026 40.8324L78.9112 40.8581L78.9204 40.8835L80.8 40.2ZM67.4 42.6L68.7541 44.0719L68.7697 44.0575L68.7851 44.0428L67.4 42.6ZM57 55.6L55.3176 54.5185L55.3176 54.5185L57 55.6ZM46.2 75.2L44.3985 74.3314L44.3985 74.3314L46.2 75.2ZM35.8 99.6L33.9297 98.8915L33.9267 98.8994L33.9238 98.9073L35.8 99.6ZM27.2 126.6L25.2336 126.235L29.1302 127.124L27.2 126.6ZM25 133H0.4V137H25V133ZM2.32556 135.541L26.5256 49.3406L22.6744 48.2594L-1.52556 134.459L2.32556 135.541ZM26.523 49.3494C27.0732 47.4238 27.4916 45.616 27.7728 43.9288L23.8272 43.2712C23.5751 44.784 23.1934 46.4428 22.677 48.2506L26.523 49.3494ZM27.7728 43.9288C28.0844 42.0594 27.9686 40.2651 27.1889 38.7056L23.6111 40.4944C23.898 41.0682 24.049 41.9406 23.8272 43.2712L27.7728 43.9288ZM27.2727 38.8977C26.4141 36.6084 24.0992 36 22 36V40C22.7709 40 23.1961 40.1145 23.3984 40.2096C23.4886 40.2521 23.5172 40.2824 23.5185 40.2838C23.5196 40.2849 23.5199 40.2854 23.5198 40.2852C23.5196 40.285 23.5195 40.2849 23.5196 40.285C23.5197 40.2851 23.5204 40.2863 23.5216 40.2887C23.5228 40.2911 23.5248 40.2955 23.5273 40.3022L27.2727 38.8977ZM22 36C18.7069 36 15.8585 37.6755 13.4702 40.5117L16.5298 43.0883C18.4081 40.8578 20.2264 40 22 40V36ZM13.4636 40.5196C11.2248 43.2062 8.92869 47.9606 6.52266 54.5104L10.2773 55.8896C12.6713 49.3727 14.7752 45.1938 16.5364 43.0804L13.4636 40.5196ZM6.51925 54.5197L3.11925 63.9197L6.88075 65.2803L10.2808 55.8803L6.51925 54.5197ZM5 62.6H1.2V66.6H5V62.6ZM3.08967 65.2551L8.28967 50.2551L4.51033 48.9449L-0.689672 63.9449L3.08967 65.2551ZM8.28421 50.2706C11.0176 42.5912 14.4222 37.6556 18.3094 35.0641L16.0906 31.7359C11.1778 35.0111 7.38244 40.8754 4.51579 48.9293L8.28421 50.2706ZM18.3094 35.0641C22.3779 32.3518 26.8579 31 31.8 31V27C26.0754 27 20.8221 28.5816 16.0906 31.7359L18.3094 35.0641ZM31.8 31C35.9851 31 38.8111 31.8321 40.5851 33.1887L43.0149 30.0113C40.2555 27.9012 36.4149 27 31.8 27V31ZM40.629 33.2214C42.6525 34.6828 43.9022 36.544 44.4544 38.8632L48.3456 37.9368C47.5645 34.656 45.7475 31.9839 42.971 29.9786L40.629 33.2214ZM44.4597 38.8851C45.0558 41.2695 45.1914 44.0184 44.8142 47.1617L48.7858 47.6383C49.2086 44.115 49.0775 40.8638 48.3403 37.9149L44.4597 38.8851ZM44.8154 47.1519C44.4256 50.2703 43.8407 53.3912 43.0597 56.5149L46.9403 57.4851C47.7594 54.2088 48.3744 50.9297 48.7846 47.6481L44.8154 47.1519ZM43.0627 56.5032L23.0627 134.503L26.9373 135.497L46.9373 57.4967L43.0627 56.5032ZM34.2822 99.2761C39.1989 85.5892 43.9005 74.3391 48.3835 65.5051L44.8165 63.6949C40.2328 72.7275 35.4678 84.1441 30.5178 97.9239L34.2822 99.2761ZM48.3835 65.5051C52.8798 56.6448 57.2045 49.7163 61.3461 44.6686L58.2539 42.1314C53.8622 47.4837 49.3869 54.6885 44.8165 63.6949L48.3835 65.5051ZM61.3617 44.6494C65.5032 39.4725 69.6762 35.9745 73.8516 34.0096L72.1484 30.3904C67.2571 32.6921 62.6301 36.6608 58.2383 42.1506L61.3617 44.6494ZM73.8516 34.0096C78.1228 31.9996 82.5658 31 87.2 31V27C81.9676 27 76.9438 28.1337 72.1484 30.3904L73.8516 34.0096ZM87.2 31C93.5357 31 97.3271 32.4386 99.2864 34.7072L102.314 32.0928C99.2062 28.4947 93.9309 27 87.2 27V31ZM99.3517 34.7793C101.576 37.1151 102.722 40.2911 102.601 44.5429L106.599 44.6571C106.744 39.5756 105.357 35.2849 102.248 32.0207L99.3517 34.7793ZM102.6 44.6C102.6 48.8788 101.782 53.5302 100.103 58.5675L103.897 59.8325C105.685 54.4697 106.6 49.3878 106.6 44.6H102.6ZM100.103 58.5675L80.5026 117.368L84.2974 118.632L103.897 59.8325L100.103 58.5675ZM80.5026 117.368C79.2771 121.044 78.7689 124.271 79.477 126.749L83.3231 125.651C82.9644 124.395 83.1229 122.156 84.2974 118.632L80.5026 117.368ZM79.4884 126.788C79.8725 128.036 80.5957 129.103 81.71 129.827C82.7945 130.532 84.0753 130.8 85.4 130.8V126.8C84.5914 126.8 84.1388 126.635 83.89 126.473C83.671 126.331 83.4609 126.097 83.3116 125.612L79.4884 126.788ZM85.4 130.8C88.1939 130.8 90.7518 129.219 93.0564 126.771L90.1436 124.029C88.1816 126.114 86.6061 126.8 85.4 126.8V130.8ZM93.0142 126.814C95.6215 124.207 98.1427 119.227 100.679 112.286L96.9215 110.914C94.3906 117.84 92.1118 122.06 90.1858 123.986L93.0142 126.814ZM100.684 112.27L103.884 103.27L100.116 101.93L96.9156 110.93L100.684 112.27ZM102 104.6H105.8V100.6H102V104.6ZM103.908 101.952L98.9079 116.552L102.692 117.848L107.692 103.248L103.908 101.952ZM98.9026 116.568C97.0954 121.989 94.8268 125.945 92.1858 128.586L95.0142 131.414C98.2399 128.189 100.771 123.611 102.697 117.832L98.9026 116.568ZM92.1533 128.619C89.5473 131.349 86.7581 133.146 83.7905 134.095L85.0096 137.905C88.7086 136.721 92.0527 134.518 95.0467 131.381L92.1533 128.619ZM83.6978 134.127C80.7069 135.249 77.7443 135.8 74.8 135.8V139.8C78.2557 139.8 81.6931 139.151 85.1023 137.873L83.6978 134.127ZM74.8 135.8C71.561 135.8 68.8662 135.239 66.6562 134.193L64.9438 137.807C67.8004 139.161 71.1057 139.8 74.8 139.8V135.8ZM66.6123 134.172C64.5252 133.245 62.9679 131.946 61.8641 130.291L58.5359 132.509C60.0987 134.854 62.2748 136.622 64.9877 137.828L66.6123 134.172ZM61.8506 130.271C60.4389 128.207 59.7496 125.423 59.9956 121.733L56.0044 121.467C55.7171 125.777 56.4945 129.526 58.5494 132.529L61.8506 130.271ZM59.9956 121.733C60.2469 117.962 61.2617 113.339 63.0974 107.832L59.3026 106.568C57.4049 112.261 56.2864 117.238 56.0044 121.467L59.9956 121.733ZM63.0987 107.828L81.2987 52.8283L77.5013 51.5717L59.3013 106.572L63.0987 107.828ZM81.309 52.7965C81.9983 50.5906 82.5509 48.3812 82.9657 46.1686L79.0343 45.4314C78.6491 47.4855 78.135 49.5427 77.491 51.6034L81.309 52.7965ZM82.9696 46.1476C83.4036 43.6882 83.3766 41.4334 82.6796 39.5165L78.9204 40.8835C79.29 41.8999 79.3964 43.3785 79.0304 45.4524L82.9696 46.1476ZM82.6974 39.5675C82.2829 38.3242 81.4906 37.3197 80.3423 36.6635C79.2419 36.0347 77.9475 35.8 76.6 35.8V39.8C77.5191 39.8 78.0581 39.9652 78.3577 40.1365C78.6095 40.2803 78.7837 40.4758 78.9026 40.8324L82.6974 39.5675ZM76.6 35.8C73.0359 35.8 69.4921 37.8191 66.0149 41.1572L68.7851 44.0428C71.9746 40.9809 74.5641 39.8 76.6 39.8V35.8ZM66.0459 41.1281C62.5432 44.3506 58.971 48.8354 55.3176 54.5185L58.6824 56.6815C62.229 51.1646 65.5902 46.9827 68.7541 44.0719L66.0459 41.1281ZM55.3176 54.5185C51.6645 60.2011 48.0257 66.8083 44.3985 74.3314L48.0015 76.0686C51.5744 68.6583 55.1355 62.1989 58.6824 56.6815L55.3176 54.5185ZM44.3985 74.3314C40.7701 81.8569 37.2809 90.0443 33.9297 98.8915L37.6703 100.308C40.9858 91.5557 44.4299 83.4765 48.0015 76.0686L44.3985 74.3314ZM33.9238 98.9073C30.7024 107.632 27.8179 116.688 25.2698 126.076L29.1302 127.124C31.6487 117.845 34.4976 108.901 37.6762 100.293L33.9238 98.9073ZM29.1664 126.965L34.3664 98.9652L30.4336 98.2348L25.2336 126.235L29.1664 126.965ZM138.141 91L137.425 89.1323L136.236 89.5876L136.146 90.8575L138.141 91ZM155.341 83.6L156.217 85.398L156.226 85.3935L156.235 85.3889L155.341 83.6ZM168.741 75.2L170.004 76.7505L170.039 76.7223L170.072 76.6926L168.741 75.2ZM180.741 59.8L182.513 60.7265L182.517 60.7184L182.521 60.7102L180.741 59.8ZM184.541 34.2L182.804 35.1923L182.804 35.1923L184.541 34.2ZM172.141 37.2L173.404 38.7505L173.404 38.7505L172.141 37.2ZM161.541 49.4L163.191 50.5294L163.198 50.5194L163.205 50.5094L161.541 49.4ZM151.941 66.6L150.122 65.7667L150.115 65.7825L150.108 65.7984L151.941 66.6ZM145.141 86.8L143.198 86.3236L143.198 86.3236L145.141 86.8ZM146.541 122.8L145.061 124.145L145.093 124.181L145.126 124.214L146.541 122.8ZM171.341 123.2L172.199 125.007L172.199 125.007L171.341 123.2ZM187.141 109.4L188.035 107.611L186.571 106.879L185.564 108.17L187.141 109.4ZM190.341 111L192.051 112.037L193.175 110.181L191.235 109.211L190.341 111ZM179.741 123.8L181.11 125.258L181.11 125.258L179.741 123.8ZM164.541 134L165.365 135.822L165.375 135.818L165.384 135.813L164.541 134ZM130.741 134.6L129.889 136.41L129.889 136.41L130.741 134.6ZM120.141 125.2L118.421 126.221L118.428 126.233L118.435 126.245L120.141 125.2ZM119.741 88.8L121.651 89.3906L121.654 89.381L119.741 88.8ZM129.341 67L127.628 65.9663L127.621 65.9782L127.614 65.9902L129.341 67ZM144.341 47.8L142.943 46.3696L142.935 46.3777L142.926 46.3858L144.341 47.8ZM163.741 34.2L164.594 36.0089L164.608 36.0023L164.621 35.9956L163.741 34.2ZM199.941 32.8L198.79 34.4356L198.81 34.4501L198.831 34.4641L199.941 32.8ZM200.941 58.6L199.261 57.5135L199.261 57.5135L200.941 58.6ZM188.941 71L187.754 69.3899L187.744 69.3975L187.734 69.4052L188.941 71ZM172.541 81L171.662 79.2032L171.654 79.2072L171.646 79.2111L172.541 81ZM137.941 93.8L135.946 93.6575L135.748 96.4269L138.437 95.7373L137.941 93.8ZM138.856 92.8677C145.169 90.45 150.957 87.9605 156.217 85.398L154.465 81.802C149.325 84.3061 143.646 86.75 137.425 89.1323L138.856 92.8677ZM156.235 85.3889C161.665 82.674 166.263 79.7984 170.004 76.7505L167.477 73.6495C164.018 76.4683 159.683 79.1926 154.446 81.8111L156.235 85.3889ZM170.072 76.6926C175.185 72.1318 179.335 66.8066 182.513 60.7265L178.968 58.8735C176.013 64.5267 172.162 69.4682 167.409 73.7074L170.072 76.6926ZM182.521 60.7102C185.739 54.4146 187.341 47.5672 187.341 40.2H183.341C183.341 46.9661 181.875 53.1854 178.96 58.8898L182.521 60.7102ZM187.341 40.2C187.341 38.6186 187.272 37.2558 187.123 36.1357C186.98 35.0643 186.74 34.018 186.277 33.2077L182.804 35.1923C182.874 35.3154 183.034 35.7357 183.158 36.6643C183.275 37.5442 183.341 38.7147 183.341 40.2H187.341ZM186.277 33.2077C185.391 31.6573 183.932 30.8 182.141 30.8V34.8C182.483 34.8 182.623 34.8761 182.804 35.1923L186.277 33.2077ZM182.141 30.8C178.429 30.8 174.659 32.5685 170.877 35.6495L173.404 38.7505C176.823 35.9648 179.719 34.8 182.141 34.8V30.8ZM170.877 35.6495C167.079 38.7441 163.418 42.9779 159.877 48.2906L163.205 50.5094C166.596 45.4221 170.002 41.5226 173.404 38.7505L170.877 35.6495ZM159.89 48.2706C156.351 53.4435 153.096 59.2781 150.122 65.7667L153.759 67.4333C156.651 61.1219 159.797 55.4898 163.191 50.5294L159.89 48.2706ZM150.108 65.7984C147.26 72.3077 144.958 79.1501 143.198 86.3236L147.083 87.2764C148.79 80.3165 151.021 73.6923 153.773 67.4016L150.108 65.7984ZM143.198 86.3236C141.429 93.5385 140.541 100.698 140.541 107.8H144.541C144.541 101.035 145.386 94.1949 147.083 87.2764L143.198 86.3236ZM140.541 107.8C140.541 115.012 141.881 120.647 145.061 124.145L148.021 121.455C145.867 119.086 144.541 114.722 144.541 107.8H140.541ZM145.126 124.214C148.357 127.444 152.56 129 157.541 129V125C153.454 125 150.325 123.756 147.955 121.386L145.126 124.214ZM157.541 129C161.819 129 166.725 127.606 172.199 125.007L170.483 121.393C165.289 123.86 160.995 125 157.541 125V129ZM172.199 125.007C177.908 122.295 183.403 117.443 188.718 110.63L185.564 108.17C180.478 114.69 175.44 119.039 170.483 121.393L172.199 125.007ZM186.246 111.189L189.446 112.789L191.235 109.211L188.035 107.611L186.246 111.189ZM188.63 109.963C186.072 114.184 182.661 118.312 178.371 122.342L181.11 125.258C185.62 121.021 189.276 116.616 192.051 112.037L188.63 109.963ZM178.371 122.342C174.134 126.323 169.247 129.605 163.697 132.187L165.384 135.813C171.301 133.061 176.548 129.544 181.11 125.258L178.371 122.342ZM163.716 132.178C158.402 134.582 152.487 135.8 145.941 135.8V139.8C152.994 139.8 159.48 138.485 165.365 135.822L163.716 132.178ZM145.941 135.8C140.6 135.8 135.829 134.784 131.592 132.79L129.889 136.41C134.719 138.682 140.081 139.8 145.941 139.8V135.8ZM131.592 132.79C127.399 130.817 124.168 127.944 121.846 124.155L118.435 126.245C121.18 130.723 125.015 134.116 129.889 136.41L131.592 132.79ZM121.86 124.179C119.549 120.286 118.341 115.458 118.341 109.6H114.341C114.341 116.008 115.665 121.58 118.421 126.221L121.86 124.179ZM118.341 109.6C118.341 103.298 119.434 96.5652 121.651 89.3906L117.83 88.2094C115.514 95.7015 114.341 102.835 114.341 109.6H118.341ZM121.654 89.381C123.873 82.0712 127.009 74.948 131.067 68.0098L127.614 65.9902C123.406 73.1854 120.141 80.5954 117.827 88.219L121.654 89.381ZM131.053 68.0337C135.237 61.103 140.138 54.8312 145.755 49.2142L142.926 46.3858C137.077 52.2355 131.977 58.7637 127.628 65.9663L131.053 68.0337ZM145.738 49.2304C151.454 43.6448 157.738 39.2426 164.594 36.0089L162.887 32.3911C155.61 35.8241 148.961 40.4885 142.943 46.3696L145.738 49.2304ZM164.621 35.9956C171.405 32.6679 178.702 31 186.541 31V27C178.112 27 170.21 28.7987 162.86 32.4044L164.621 35.9956ZM186.541 31C191.551 31 195.593 32.1858 198.79 34.4356L201.092 31.1644C197.089 28.3475 192.197 27 186.541 27V31ZM198.831 34.4641C201.773 36.4253 203.341 39.4696 203.341 44H207.341C207.341 38.397 205.308 33.9747 201.05 31.1359L198.831 34.4641ZM203.341 44C203.341 48.7992 201.994 53.2907 199.261 57.5135L202.62 59.6865C205.754 54.8426 207.341 49.6008 207.341 44H203.341ZM199.261 57.5135C196.479 61.8134 192.658 65.7766 187.754 69.3899L190.127 72.6101C195.357 68.7568 199.535 64.4533 202.62 59.6865L199.261 57.5135ZM187.734 69.4052C182.911 73.0549 177.556 76.322 171.662 79.2032L173.419 82.7968C179.526 79.8113 185.104 76.4118 190.148 72.5948L187.734 69.4052ZM171.646 79.2111C165.85 82.1092 159.992 84.6103 154.071 86.7156L155.411 90.4844C161.49 88.323 167.498 85.7575 173.435 82.7889L171.646 79.2111ZM154.071 86.7156C148.117 88.8323 142.576 90.5468 137.444 91.8627L138.437 95.7373C143.705 94.3865 149.364 92.6344 155.411 90.4844L154.071 86.7156ZM139.936 93.9425L140.136 91.1425L136.146 90.8575L135.946 93.6575L139.936 93.9425ZM300.152 61.8V63.8H302.152V61.8H300.152ZM278.352 61.8L276.367 62.0519L276.589 63.8H278.352V61.8ZM263.952 72.4L264.406 70.4523L264.398 70.4504L263.952 72.4ZM212.552 102V100H210.447L210.554 102.102L212.552 102ZM234.352 102L236.344 101.824L236.183 100H234.352V102ZM256.952 91L257.43 89.058L257.429 89.0578L256.952 91ZM300.152 59.8H278.352V63.8H300.152V59.8ZM280.336 61.5481C279.477 54.7827 276.676 50.1042 272.218 47.1993C267.866 44.3634 262.205 43.4 255.952 43.4V47.4C261.898 47.4 266.637 48.3366 270.035 50.5506C273.327 52.6957 275.627 56.2173 276.367 62.0519L280.336 61.5481ZM255.952 43.4C249.943 43.4 244.908 44.5326 241.311 46.8737C237.614 49.2794 235.552 52.8993 235.552 57.4H239.552C239.552 54.3007 240.889 51.9206 243.492 50.2263C246.195 48.4674 250.36 47.4 255.952 47.4V43.4ZM235.552 57.4C235.552 60.3312 236.249 62.7734 237.733 64.7842C239.195 66.7659 241.283 68.1416 243.727 69.208C246.161 70.2706 249.087 71.0846 252.362 71.8616C255.594 72.6284 259.448 73.4209 263.505 74.3496L264.398 70.4504C260.155 69.4791 256.56 68.7466 253.285 67.9696C250.053 67.2029 247.417 66.4544 245.327 65.542C243.245 64.6334 241.846 63.6216 240.952 62.4095C240.079 61.2266 239.552 59.6688 239.552 57.4H235.552ZM263.497 74.3477C272.598 76.4713 282.26 78.6122 289.693 82.9521C293.369 85.0983 296.413 87.7381 298.543 91.104C300.664 94.4554 301.952 98.6393 301.952 104H305.952C305.952 97.9607 304.489 93.0196 301.923 88.9648C299.366 84.9244 295.784 81.8767 291.71 79.4978C283.643 74.7878 273.305 72.5287 264.406 70.4523L263.497 74.3477ZM301.952 104C301.952 113.778 297.892 121.686 290.595 127.205C283.242 132.767 272.459 136 258.952 136V140C273.044 140 284.762 136.633 293.008 130.395C301.312 124.114 305.952 115.022 305.952 104H301.952ZM258.952 136C244.598 136 233.797 132.947 226.477 127.27C219.222 121.642 215.125 113.233 214.549 101.898L210.554 102.102C211.178 114.367 215.681 123.958 224.026 130.43C232.306 136.853 244.105 140 258.952 140V136ZM212.552 104H234.352V100H212.552V104ZM232.359 102.176C233.002 109.458 235.937 114.875 240.799 118.417C245.591 121.907 252.015 123.4 259.352 123.4V119.4C252.488 119.4 247.012 117.993 243.154 115.183C239.367 112.425 236.901 108.142 236.344 101.824L232.359 102.176ZM259.352 123.4C266.307 123.4 272.286 121.899 276.591 119.011C280.961 116.079 283.552 111.734 283.552 106.4H279.552C279.552 110.266 277.742 113.421 274.362 115.689C270.917 118.001 265.796 119.4 259.352 119.4V123.4ZM283.552 106.4C283.552 103.395 282.702 100.896 281.122 98.8384C279.572 96.8181 277.413 95.3471 274.985 94.1935C270.221 91.9298 263.768 90.6181 257.43 89.058L256.474 92.942C263.136 94.5819 268.983 95.7702 273.268 97.8065C275.365 98.8029 276.919 99.9319 277.949 101.274C278.951 102.579 279.552 104.205 279.552 106.4H283.552ZM257.429 89.0578C245.457 86.1154 235.275 83.985 227.978 79.9044C224.396 77.9016 221.627 75.4833 219.738 72.3589C217.851 69.2379 216.752 65.2631 216.752 60H212.752C212.752 65.8369 213.977 70.5621 216.315 74.4286C218.651 78.2917 222.007 81.1484 226.025 83.3956C233.928 87.815 244.847 90.0846 256.474 92.9422L257.429 89.0578ZM216.752 60C216.752 50.8056 220.423 43.6151 227.139 38.6593C233.93 33.648 244.01 30.8 256.952 30.8V26.8C243.494 26.8 232.473 29.752 224.764 35.4407C216.98 41.1849 212.752 49.5944 212.752 60H216.752ZM256.952 30.8C268.526 30.8 278.88 33.1612 286.279 38.1801C293.573 43.1282 298.152 50.7546 298.152 61.8H302.152C302.152 49.4454 296.93 40.5718 288.524 34.8699C280.223 29.2388 268.977 26.8 256.952 26.8V30.8ZM372.463 31.8H374.463V29.8H372.463V31.8ZM372.463 48.4V50.4H374.463V48.4H372.463ZM351.663 48.4V46.4H349.663V48.4H351.663ZM372.463 117.2H374.463V114.951L372.229 115.214L372.463 117.2ZM372.463 135.2L372.696 137.186L374.463 136.978V135.2H372.463ZM328.863 48.4H330.863V46.4H328.863V48.4ZM311.663 48.4H309.663V50.4H311.663V48.4ZM311.663 31.8V29.8H309.663V31.8H311.663ZM328.863 31.8V33.8H330.863V31.8H328.863ZM328.863 0.799999V-1.2H326.863V0.799999H328.863ZM351.663 0.799999H353.663V-1.2H351.663V0.799999ZM351.663 31.8H349.663V33.8H351.663V31.8ZM370.463 31.8V48.4H374.463V31.8H370.463ZM372.463 46.4H351.663V50.4H372.463V46.4ZM349.663 48.4V102.8H353.663V48.4H349.663ZM349.663 102.8C349.663 105.209 349.648 107.469 349.827 109.429C350.006 111.391 350.394 113.276 351.337 114.886C353.363 118.344 357.325 119.6 363.463 119.6V115.6C357.6 115.6 355.662 114.356 354.788 112.864C354.281 111.999 353.969 110.797 353.81 109.065C353.652 107.331 353.663 105.291 353.663 102.8H349.663ZM363.463 119.6C366.665 119.6 369.169 119.601 372.696 119.186L372.229 115.214C368.956 115.599 366.66 115.6 363.463 115.6V119.6ZM370.463 117.2V135.2H374.463V117.2H370.463ZM372.229 133.214C365.54 134.001 362.828 134 357.063 134V138C362.897 138 365.785 137.999 372.696 137.186L372.229 133.214ZM357.063 134C349.699 134 344.497 133.075 340.802 131.458C337.176 129.872 334.943 127.597 333.505 124.689C332.03 121.705 331.34 117.95 331.046 113.344C330.751 108.732 330.863 103.517 330.863 97.6H326.863C326.863 103.383 326.749 108.818 327.054 113.599C327.36 118.388 328.095 122.77 329.92 126.461C331.782 130.228 334.724 133.165 339.198 135.123C343.603 137.05 349.426 138 357.063 138V134ZM330.863 97.6V48.4H326.863V97.6H330.863ZM328.863 46.4H311.663V50.4H328.863V46.4ZM313.663 48.4V31.8H309.663V48.4H313.663ZM311.663 33.8H328.863V29.8H311.663V33.8ZM330.863 31.8V0.799999H326.863V31.8H330.863ZM328.863 2.8H351.663V-1.2H328.863V2.8ZM349.663 0.799999V31.8H353.663V0.799999H349.663ZM351.663 33.8H372.463V29.8H351.663V33.8Z" fill="#532926" mask="url(#path-1-outside-1_2903_3)"/>
</svg>
