<svg width="33" height="32" viewBox="0 0 33 32" fill="none" xmlns="http://www.w3.org/2000/svg">
<g clip-path="url(#clip0_82_28)">
<path d="M18.6238 24.5867L27.166 16L18.6238 7.41335C18.5466 7.31204 18.4486 7.22849 18.3364 7.16835C18.2241 7.10822 18.1003 7.0729 17.9732 7.06479C17.8461 7.05668 17.7188 7.07598 17.5998 7.12136C17.4808 7.16674 17.373 7.23716 17.2836 7.32784C17.1942 7.41853 17.1253 7.52736 17.0816 7.64697C17.038 7.76659 17.0205 7.89419 17.0304 8.02114C17.0403 8.14809 17.0774 8.27143 17.1392 8.38281C17.2009 8.49418 17.2858 8.59099 17.3882 8.66669L23.7793 15.1111L6.7749 15.1111C6.53916 15.1111 6.31306 15.2048 6.14637 15.3715C5.97967 15.5382 5.88601 15.7643 5.88601 16C5.88601 16.2358 5.97967 16.4619 6.14637 16.6286C6.31306 16.7953 6.53916 16.8889 6.7749 16.8889H23.7793L17.3882 23.3334C17.222 23.5007 17.1291 23.7273 17.13 23.9632C17.1308 24.199 17.2253 24.4249 17.3927 24.5911C17.5601 24.7573 17.7866 24.8502 18.0225 24.8494C18.2584 24.8486 18.4843 24.7541 18.6505 24.5867H18.6238Z" fill="#F3F1EB"/>
</g>
<defs>
<clipPath id="clip0_82_28">
<rect width="32" height="32" fill="white" transform="matrix(0 1 -1 0 32.5 0)"/>
</clipPath>
</defs>
</svg>
