<svg width="32" height="32" viewBox="0 0 32 32" fill="none" xmlns="http://www.w3.org/2000/svg">
<g clip-path="url(#clip0_82_210)">
<path d="M18.1238 24.5867L26.666 16L18.1238 7.41335C18.0466 7.31204 17.9486 7.22849 17.8364 7.16835C17.7241 7.10822 17.6003 7.0729 17.4732 7.06479C17.3461 7.05668 17.2188 7.07598 17.0998 7.12136C16.9808 7.16674 16.873 7.23716 16.7836 7.32784C16.6942 7.41853 16.6253 7.52736 16.5816 7.64697C16.538 7.76659 16.5205 7.89419 16.5304 8.02114C16.5403 8.14809 16.5774 8.27143 16.6392 8.38281C16.7009 8.49418 16.7858 8.59099 16.8882 8.66669L23.2793 15.1111L6.2749 15.1111C6.03916 15.1111 5.81306 15.2048 5.64637 15.3715C5.47967 15.5382 5.38601 15.7643 5.38601 16C5.38601 16.2358 5.47967 16.4619 5.64637 16.6286C5.81306 16.7953 6.03916 16.8889 6.2749 16.8889H23.2793L16.8882 23.3334C16.722 23.5007 16.6291 23.7273 16.63 23.9632C16.6308 24.199 16.7253 24.4249 16.8927 24.5911C17.0601 24.7573 17.2866 24.8502 17.5225 24.8494C17.7584 24.8486 17.9843 24.7541 18.1505 24.5867H18.1238Z" fill="black"/>
</g>
<defs>
<clipPath id="clip0_82_210">
<rect width="32" height="32" fill="white" transform="matrix(0 1 -1 0 32 0)"/>
</clipPath>
</defs>
</svg>
