<svg width="18" height="18" viewBox="0 0 18 18" fill="none" xmlns="http://www.w3.org/2000/svg">
<path fill-rule="evenodd" clip-rule="evenodd" d="M2.25536 6.80816C4.04611 10.7074 7.22787 13.7973 11.1774 15.4728L11.1894 15.4778L11.9534 15.8179C12.4253 16.0284 12.9552 16.07 13.4542 15.9358C13.9531 15.8015 14.3907 15.4996 14.6934 15.0808L15.9674 13.3174C16.0048 13.2655 16.0209 13.2012 16.0124 13.1377C16.0038 13.0743 15.9712 13.0165 15.9214 12.9764L13.6974 11.181C13.6711 11.1598 13.6409 11.1442 13.6084 11.135C13.576 11.1258 13.542 11.1233 13.5085 11.1276C13.4751 11.1319 13.4429 11.1429 13.4138 11.16C13.3847 11.1771 13.3594 11.1999 13.3394 11.227L12.4734 12.3952C12.3713 12.5331 12.2252 12.6318 12.0592 12.6749C11.8933 12.718 11.7176 12.703 11.5614 12.6323C8.60241 11.2916 6.2318 8.92051 4.89136 5.961C4.82067 5.80476 4.80563 5.62901 4.84875 5.46303C4.89188 5.29705 4.99056 5.15086 5.12836 5.04882L6.29536 4.18165C6.32248 4.1616 6.34526 4.13628 6.36234 4.1072C6.37941 4.07812 6.39043 4.04588 6.39473 4.01243C6.39903 3.97898 6.39651 3.945 6.38734 3.91255C6.37817 3.8801 6.36253 3.84983 6.34136 3.82358L4.54736 1.59915C4.50722 1.54927 4.44948 1.51669 4.38603 1.50813C4.32259 1.49957 4.25828 1.51568 4.20636 1.55314L2.43336 2.83339C2.01176 3.13756 1.70846 3.57835 1.57502 4.08086C1.44158 4.58338 1.48622 5.1166 1.70136 5.58992L2.25536 6.80816ZM10.5854 16.8511C6.29446 15.0288 2.83796 11.6704 0.89236 7.43328L0.890359 7.43128L0.336359 6.21104C-0.0222207 5.42233 -0.0967321 4.53377 0.125485 3.69633C0.347701 2.85889 0.852939 2.12422 1.55536 1.61715L3.32836 0.336906C3.69149 0.0747758 4.14127 -0.0381415 4.58512 0.0213976C5.02898 0.0809366 5.43312 0.308401 5.71436 0.656968L7.50936 2.8824C7.65749 3.06601 7.76698 3.27767 7.83125 3.50468C7.89552 3.73168 7.91324 3.96934 7.88335 4.20337C7.85346 4.4374 7.77657 4.66297 7.65731 4.86652C7.53805 5.07008 7.37888 5.24742 7.18936 5.38788L6.51936 5.88398C7.65214 8.08075 9.44102 9.86997 11.6374 11.003L12.1344 10.3328C12.2748 10.1434 12.452 9.98435 12.6555 9.86516C12.8589 9.74597 13.0843 9.66913 13.3182 9.63923C13.552 9.60934 13.7895 9.62702 14.0164 9.69121C14.2433 9.7554 14.4548 9.86478 14.6384 10.0128L16.8634 11.8081C17.2121 12.0895 17.4397 12.4939 17.4993 12.938C17.5588 13.3822 17.4457 13.8323 17.1834 14.1956L15.9094 15.9599C15.4051 16.658 14.6759 17.1612 13.8445 17.3851C13.013 17.6089 12.1299 17.5397 11.3434 17.1892L10.5854 16.8511Z" fill="black"/>
</svg>
