<svg width="32" height="32" viewBox="0 0 32 32" fill="none" xmlns="http://www.w3.org/2000/svg">
<g clip-path="url(#clip0_82_213)">
<path d="M13.8762 7.41331L5.33398 16L13.8762 24.5866C13.9534 24.688 14.0514 24.7715 14.1636 24.8316C14.2759 24.8918 14.3997 24.9271 14.5268 24.9352C14.6539 24.9433 14.7812 24.924 14.9002 24.8786C15.0192 24.8333 15.127 24.7628 15.2164 24.6722C15.3058 24.5815 15.3747 24.4726 15.4184 24.353C15.462 24.2334 15.4795 24.1058 15.4696 23.9789C15.4597 23.8519 15.4226 23.7286 15.3608 23.6172C15.2991 23.5058 15.2142 23.409 15.1118 23.3333L8.72065 16.8889H25.7251C25.9608 16.8889 26.1869 16.7952 26.3536 16.6285C26.5203 16.4618 26.614 16.2357 26.614 16C26.614 15.7642 26.5203 15.5381 26.3536 15.3714C26.1869 15.2047 25.9608 15.1111 25.7251 15.1111L8.72065 15.1111L15.1118 8.66665C15.278 8.49927 15.3709 8.27272 15.37 8.03684C15.3692 7.80096 15.2747 7.57507 15.1073 7.40887C14.9399 7.24267 14.7134 7.14976 14.4775 7.1506C14.2416 7.15143 14.0157 7.24593 13.8495 7.41331H13.8762Z" fill="black"/>
</g>
<defs>
<clipPath id="clip0_82_213">
<rect width="32" height="32" fill="white" transform="matrix(0 -1 1 0 0 32)"/>
</clipPath>
</defs>
</svg>
