<svg width="20" height="20" viewBox="0 0 20 20" fill="none" xmlns="http://www.w3.org/2000/svg">
<path d="M10 0C4.48 0 0 4.47529 0 9.98948C0 15.5037 4.48 19.979 10 19.979C15.52 19.979 20 15.5037 20 9.98948C20 4.47529 15.52 0 10 0ZM14.64 6.79284C14.49 8.37118 13.84 12.2071 13.51 13.9753C13.37 14.7245 13.09 14.9742 12.83 15.0042C12.25 15.0541 11.81 14.6246 11.25 14.255C10.37 13.6756 9.87 13.316 9.02 12.7566C8.03 12.1072 8.67 11.7476 9.24 11.1682C9.39 11.0184 11.95 8.69084 12 8.48106C12.0069 8.44929 12.006 8.41631 11.9973 8.38497C11.9886 8.35363 11.9724 8.3249 11.95 8.30126C11.89 8.25131 11.81 8.27129 11.74 8.28128C11.65 8.30126 10.25 9.23028 7.52 11.0683C7.12 11.3381 6.76 11.4779 6.44 11.4679C6.08 11.4579 5.4 11.2681 4.89 11.0983C4.26 10.8985 3.77 10.7886 3.81 10.439C3.83 10.2592 4.08 10.0794 4.55 9.88958C7.47 8.62092 9.41 7.7818 10.38 7.38222C13.16 6.22344 13.73 6.02365 14.11 6.02365C14.19 6.02365 14.38 6.04363 14.5 6.14353C14.6 6.22344 14.63 6.33333 14.64 6.41324C14.63 6.47318 14.65 6.65299 14.64 6.79284Z" fill="#F3F1EB"/>
</svg>
