<svg width="75" height="16" viewBox="0 0 75 16" fill="none" xmlns="http://www.w3.org/2000/svg">
<path d="M4.02 15.3C3.5 15.3 3.02 15.2 2.58 15C2.15333 14.8 1.81333 14.48 1.56 14.04C1.32 13.5867 1.20667 12.9933 1.22 12.26L1.28 7.12C1.28 6.81333 1.22667 6.59333 1.12 6.46C1.01333 6.32667 0.846667 6.23333 0.62 6.18L0.38 6.1V5.9L3.96 5.2L4.16 5.4L4.06 8.24V13.06C4.06 13.4867 4.18 13.8 4.42 14C4.67333 14.2 4.98667 14.3 5.36 14.3C5.73333 14.3 6.06667 14.2467 6.36 14.14C6.65333 14.0333 6.94667 13.8733 7.24 13.66L7.32 7.14C7.32 6.83333 7.27333 6.62 7.18 6.5C7.08667 6.36667 6.91333 6.27333 6.66 6.22L6.46 6.16V5.96L9.96 5.2L10.16 5.4L10.1 8.24V13.66C10.1 13.9533 10.14 14.18 10.22 14.34C10.3 14.5 10.4733 14.6333 10.74 14.74L10.94 14.8V15L7.44 15.2L7.26 14.02C6.82 14.38 6.34 14.6867 5.82 14.94C5.31333 15.18 4.71333 15.3 4.02 15.3ZM11.1477 15V14.8L11.4477 14.72C11.7143 14.64 11.8943 14.52 11.9877 14.36C12.0943 14.2 12.1477 13.9933 12.1477 13.74V7.48C12.1477 7.18667 12.0943 6.97333 11.9877 6.84C11.8943 6.69333 11.7143 6.59333 11.4477 6.54L11.1477 6.46V6.26L14.5877 5.1L14.7877 5.3L14.9677 7.02V7.18C15.1543 6.80667 15.3943 6.46667 15.6877 6.16C15.9943 5.84 16.3277 5.58 16.6877 5.38C17.061 5.18 17.4277 5.08 17.7877 5.08C18.2943 5.08 18.681 5.22 18.9477 5.5C19.2143 5.78 19.3477 6.13333 19.3477 6.56C19.3477 7.01333 19.2143 7.36667 18.9477 7.62C18.6943 7.86 18.3877 7.98 18.0277 7.98C17.4677 7.98 16.9743 7.7 16.5477 7.14L16.5077 7.1C16.3743 6.91333 16.221 6.81333 16.0477 6.8C15.8743 6.77333 15.7143 6.85333 15.5677 7.04C15.4343 7.16 15.321 7.30667 15.2277 7.48C15.1477 7.64 15.0677 7.82667 14.9877 8.04V13.62C14.9877 14.1533 15.221 14.4867 15.6877 14.62L16.3277 14.8V15H11.1477ZM22.3661 15.26L18.9861 15V14.8L19.1861 14.76C19.7061 14.64 19.9661 14.3067 19.9661 13.76V3.06C19.9661 2.78 19.9194 2.56667 19.8261 2.42C19.7461 2.27333 19.5728 2.17333 19.3061 2.12L19.0261 2.04V1.84L22.5861 0.979999L22.8261 1.16L22.7461 3.98V6C23.1861 5.69333 23.6661 5.46667 24.1861 5.32C24.7061 5.16 25.2328 5.08 25.7661 5.08C26.5261 5.08 27.1994 5.26 27.7861 5.62C28.3728 5.96667 28.8328 6.51333 29.1661 7.26C29.5128 7.99333 29.6861 8.94 29.6861 10.1C29.6861 11.26 29.4928 12.2267 29.1061 13C28.7328 13.76 28.2261 14.3333 27.5861 14.72C26.9594 15.1067 26.2661 15.3 25.5061 15.3C25.0128 15.3 24.5128 15.2333 24.0061 15.1C23.5128 14.9667 23.0728 14.78 22.6861 14.54L22.3661 15.26ZM24.5061 14.62C24.9328 14.62 25.3061 14.4867 25.6261 14.22C25.9461 13.9533 26.1994 13.5 26.3861 12.86C26.5728 12.2067 26.6661 11.3133 26.6661 10.18C26.6661 9.04667 26.5794 8.17333 26.4061 7.56C26.2328 6.94667 25.9861 6.52 25.6661 6.28C25.3594 6.04 24.9861 5.92 24.5461 5.92C23.9194 5.92 23.3394 6.09333 22.8061 6.44V14.12C23.0594 14.28 23.3194 14.4067 23.5861 14.5C23.8528 14.58 24.1594 14.62 24.5061 14.62ZM32.77 15.3C31.9967 15.3 31.3433 15.08 30.81 14.64C30.29 14.2 30.03 13.5667 30.03 12.74C30.03 12.1133 30.35 11.54 30.99 11.02C31.63 10.4867 32.6367 10.0867 34.01 9.82C34.2233 9.78 34.4633 9.74 34.73 9.7C34.9967 9.64667 35.2767 9.59333 35.57 9.54V7.96C35.57 7.05333 35.4567 6.42 35.23 6.06C35.0167 5.68667 34.6767 5.5 34.21 5.5C33.89 5.5 33.6367 5.60667 33.45 5.82C33.2633 6.02 33.1433 6.37333 33.09 6.88L33.05 7.1C33.0233 7.67333 32.8833 8.09333 32.63 8.36C32.3767 8.62667 32.0633 8.76 31.69 8.76C31.3433 8.76 31.0567 8.65333 30.83 8.44C30.6033 8.22667 30.49 7.94 30.49 7.58C30.49 7.03333 30.6767 6.57333 31.05 6.2C31.4367 5.82667 31.9433 5.54667 32.57 5.36C33.1967 5.17333 33.8767 5.08 34.61 5.08C35.7967 5.08 36.71 5.37333 37.35 5.96C38.0033 6.53333 38.33 7.47333 38.33 8.78V13.2C38.33 13.8 38.61 14.1 39.17 14.1H39.61L39.79 14.26C39.5367 14.58 39.2567 14.8267 38.95 15C38.6567 15.1733 38.2367 15.26 37.69 15.26C37.1033 15.26 36.6367 15.1267 36.29 14.86C35.9567 14.58 35.7367 14.2133 35.63 13.76C35.23 14.1867 34.8167 14.5533 34.39 14.86C33.9767 15.1533 33.4367 15.3 32.77 15.3ZM33.99 14.08C34.2567 14.08 34.5033 14.02 34.73 13.9C34.97 13.7667 35.25 13.5667 35.57 13.3V9.94C35.4367 9.96667 35.3033 9.99333 35.17 10.02C35.0367 10.0467 34.8833 10.0733 34.71 10.1C34.0967 10.26 33.6033 10.5333 33.23 10.92C32.87 11.2933 32.69 11.8 32.69 12.44C32.69 12.9867 32.8167 13.4 33.07 13.68C33.3233 13.9467 33.63 14.08 33.99 14.08ZM39.5625 15V14.8L39.8425 14.72C40.3092 14.5867 40.5425 14.26 40.5425 13.74V7.48C40.5425 7.18667 40.4958 6.97333 40.4025 6.84C40.3092 6.69333 40.1292 6.59333 39.8625 6.54L39.5625 6.46V6.26L42.9825 5.1L43.1825 5.3L43.3425 6.5C43.8092 6.08667 44.3358 5.74667 44.9225 5.48C45.5092 5.21333 46.0892 5.08 46.6625 5.08C47.5425 5.08 48.2158 5.32 48.6825 5.8C49.1625 6.28 49.4025 7.01333 49.4025 8V13.76C49.4025 14.28 49.6558 14.6067 50.1625 14.74L50.3425 14.8V15H45.6225V14.8L45.8825 14.72C46.3492 14.5733 46.5825 14.2467 46.5825 13.74V7.36C46.5825 6.50667 46.1558 6.08 45.3025 6.08C44.7158 6.08 44.0758 6.37333 43.3825 6.96V13.76C43.3825 14.28 43.6158 14.6067 44.0825 14.74L44.2625 14.8V15H39.5625ZM55.545 5.08C56.4117 5.08 57.1517 5.26 57.765 5.62C58.3783 5.96667 58.845 6.44667 59.165 7.06C59.4983 7.66 59.665 8.34667 59.665 9.12C59.665 9.26667 59.6583 9.42 59.645 9.58C59.6317 9.72667 59.605 9.86 59.565 9.98H53.605C53.6183 11.42 53.8717 12.46 54.365 13.1C54.8717 13.7267 55.6183 14.04 56.605 14.04C57.2717 14.04 57.8117 13.9333 58.225 13.72C58.6383 13.5067 59.025 13.1933 59.385 12.78L59.585 12.96C59.1717 13.6933 58.6183 14.2667 57.925 14.68C57.245 15.0933 56.425 15.3 55.465 15.3C54.5183 15.3 53.6783 15.1 52.945 14.7C52.2117 14.2867 51.6383 13.7 51.225 12.94C50.8117 12.18 50.605 11.2733 50.605 10.22C50.605 9.12667 50.845 8.2 51.325 7.44C51.805 6.66667 52.4183 6.08 53.165 5.68C53.925 5.28 54.7183 5.08 55.545 5.08ZM55.485 5.48C55.0983 5.48 54.765 5.6 54.485 5.84C54.2183 6.06667 54.005 6.48 53.845 7.08C53.6983 7.66667 53.6183 8.5 53.605 9.58H57.025C57.1583 8.12667 57.105 7.08 56.865 6.44C56.625 5.8 56.165 5.48 55.485 5.48ZM63.5217 15.3C62.8684 15.3 62.2817 15.22 61.7617 15.06C61.2417 14.9133 60.7617 14.7267 60.3217 14.5L60.3417 12.12H60.5417L61.2217 13.32C61.5151 13.8533 61.8351 14.2533 62.1817 14.52C62.5417 14.7733 62.9951 14.9 63.5417 14.9C64.1817 14.9 64.6951 14.76 65.0817 14.48C65.4817 14.1867 65.6817 13.8 65.6817 13.32C65.6817 12.88 65.5417 12.52 65.2617 12.24C64.9817 11.96 64.4617 11.7067 63.7017 11.48L62.8617 11.22C62.0484 10.98 61.4084 10.6067 60.9417 10.1C60.4751 9.59333 60.2417 8.97333 60.2417 8.24C60.2417 7.36 60.5884 6.61333 61.2817 6C61.9751 5.38667 62.9684 5.08 64.2617 5.08C64.7817 5.08 65.2684 5.14 65.7217 5.26C66.1884 5.36667 66.6351 5.53333 67.0617 5.76L66.9417 7.92H66.7417L66.0417 6.68C65.7884 6.24 65.5351 5.93333 65.2817 5.76C65.0417 5.57333 64.6751 5.48 64.1817 5.48C63.7284 5.48 63.3017 5.60667 62.9017 5.86C62.5017 6.11333 62.3017 6.47333 62.3017 6.94C62.3017 7.39333 62.4684 7.75333 62.8017 8.02C63.1484 8.28667 63.6551 8.53333 64.3217 8.76L65.2217 9.02C66.1817 9.31333 66.8684 9.72 67.2817 10.24C67.6951 10.7467 67.9017 11.36 67.9017 12.08C67.9017 13.0533 67.5151 13.8333 66.7417 14.42C65.9817 15.0067 64.9084 15.3 63.5217 15.3ZM71.9727 15.3C71.1193 15.3 70.4527 15.0867 69.9727 14.66C69.506 14.2333 69.2727 13.5533 69.2727 12.62V5.78H67.8927V5.58L68.3727 5.5C68.786 5.40667 69.1393 5.27333 69.4327 5.1C69.7393 4.92667 70.0393 4.69333 70.3327 4.4L71.9727 2.58H72.1727L72.1127 5.38H74.3527V5.78H72.0927V12.98C72.0927 13.4467 72.1927 13.8 72.3927 14.04C72.606 14.28 72.8727 14.4 73.1927 14.4C73.4727 14.4 73.7193 14.3333 73.9327 14.2C74.146 14.0533 74.3593 13.86 74.5727 13.62L74.7727 13.82C74.506 14.2733 74.1393 14.6333 73.6727 14.9C73.206 15.1667 72.6393 15.3 71.9727 15.3Z" fill="#F3F1EB"/>
</svg>
