<svg width="775" height="342" viewBox="0 0 775 342" fill="none" xmlns="http://www.w3.org/2000/svg">
<mask id="path-1-outside-1_83_237" maskUnits="userSpaceOnUse" x="14" y="11" width="572" height="208" fill="black">
<rect fill="white" x="14" y="11" width="572" height="208"/>
<path d="M143.64 68.52V213H113.68V191.44C101.36 208.8 86.24 216.92 66.08 216.92C34.16 216.92 16.8 198.16 16.8 164.28V68.52H48.72V151.12C48.72 172.12 49.84 190.04 77 190.04C102.48 190.04 111.72 168.76 111.72 144.96V68.52H143.64ZM259.341 65.72V96.24C253.741 95.68 251.501 95.4 248.141 95.4C216.501 95.4 206.421 119.2 206.421 149.44V213H174.781V68.52H204.741V97.36C214.261 77.48 229.941 65.16 253.181 65.16C255.141 65.16 256.261 65.44 259.341 65.72ZM307.939 13.64V87.28C318.859 71.88 336.779 64.88 355.259 64.88C393.899 64.88 419.099 94.56 419.099 139.64C419.099 186.12 393.059 216.92 353.579 216.92C333.979 216.92 316.619 210.2 306.259 193.4V213H276.299V13.64H307.939ZM347.139 90.36C321.939 90.08 306.819 109.4 306.819 141.04C306.819 172.12 322.219 191.16 347.139 191.16C371.219 191.16 386.899 171 386.899 140.2C386.899 109.68 371.499 90.36 347.139 90.36ZM445.791 113.04C449.431 77.48 473.791 64.04 509.071 64.04C543.231 64.04 568.431 76.64 568.431 107.72V181.08C568.431 189.48 570.111 191.72 575.991 191.72C578.231 191.72 579.351 191.72 583.271 191.16V213.56C573.191 216.08 568.711 216.64 562.551 216.64C550.231 216.64 541.271 211.88 539.031 199.28C525.871 211.88 507.391 216.64 488.351 216.64C458.391 216.64 439.631 200.12 439.631 173.52C439.631 135.16 475.471 131.52 504.311 127.88C526.431 125.08 532.871 123.68 535.951 119.48C537.351 117.8 537.911 114.44 537.911 109.12C537.911 94.28 528.391 87.28 508.231 87.28C487.511 87.28 478.551 94.28 476.031 113.04H445.791ZM537.631 140.48C527.271 146.36 515.511 146.64 504.031 148.32C489.191 150.56 472.391 153.36 472.391 172.4C472.391 186.12 481.911 193.96 498.431 193.96C511.591 193.96 523.911 189.76 531.191 182.48C537.911 175.76 537.631 166.24 537.631 157.56V140.48Z"/>
</mask>
<path d="M143.64 68.52V213H113.68V191.44C101.36 208.8 86.24 216.92 66.08 216.92C34.16 216.92 16.8 198.16 16.8 164.28V68.52H48.72V151.12C48.72 172.12 49.84 190.04 77 190.04C102.48 190.04 111.72 168.76 111.72 144.96V68.52H143.64ZM259.341 65.72V96.24C253.741 95.68 251.501 95.4 248.141 95.4C216.501 95.4 206.421 119.2 206.421 149.44V213H174.781V68.52H204.741V97.36C214.261 77.48 229.941 65.16 253.181 65.16C255.141 65.16 256.261 65.44 259.341 65.72ZM307.939 13.64V87.28C318.859 71.88 336.779 64.88 355.259 64.88C393.899 64.88 419.099 94.56 419.099 139.64C419.099 186.12 393.059 216.92 353.579 216.92C333.979 216.92 316.619 210.2 306.259 193.4V213H276.299V13.64H307.939ZM347.139 90.36C321.939 90.08 306.819 109.4 306.819 141.04C306.819 172.12 322.219 191.16 347.139 191.16C371.219 191.16 386.899 171 386.899 140.2C386.899 109.68 371.499 90.36 347.139 90.36ZM445.791 113.04C449.431 77.48 473.791 64.04 509.071 64.04C543.231 64.04 568.431 76.64 568.431 107.72V181.08C568.431 189.48 570.111 191.72 575.991 191.72C578.231 191.72 579.351 191.72 583.271 191.16V213.56C573.191 216.08 568.711 216.64 562.551 216.64C550.231 216.64 541.271 211.88 539.031 199.28C525.871 211.88 507.391 216.64 488.351 216.64C458.391 216.64 439.631 200.12 439.631 173.52C439.631 135.16 475.471 131.52 504.311 127.88C526.431 125.08 532.871 123.68 535.951 119.48C537.351 117.8 537.911 114.44 537.911 109.12C537.911 94.28 528.391 87.28 508.231 87.28C487.511 87.28 478.551 94.28 476.031 113.04H445.791ZM537.631 140.48C527.271 146.36 515.511 146.64 504.031 148.32C489.191 150.56 472.391 153.36 472.391 172.4C472.391 186.12 481.911 193.96 498.431 193.96C511.591 193.96 523.911 189.76 531.191 182.48C537.911 175.76 537.631 166.24 537.631 157.56V140.48Z" fill="#F3F1EB"/>
<path d="M143.64 68.52H145.64V66.52H143.64V68.52ZM143.64 213V215H145.64V213H143.64ZM113.68 213H111.68V215H113.68V213ZM113.68 191.44H115.68V185.166L112.049 190.283L113.68 191.44ZM16.8 68.52V66.52H14.8V68.52H16.8ZM48.72 68.52H50.72V66.52H48.72V68.52ZM111.72 68.52V66.52H109.72V68.52H111.72ZM141.64 68.52V213H145.64V68.52H141.64ZM143.64 211H113.68V215H143.64V211ZM115.68 213V191.44H111.68V213H115.68ZM112.049 190.283C100.078 207.151 85.5476 214.92 66.08 214.92V218.92C86.9325 218.92 102.642 210.449 115.311 192.597L112.049 190.283ZM66.08 214.92C50.5144 214.92 38.787 210.356 30.9321 201.94C23.0567 193.502 18.8 180.9 18.8 164.28H14.8C14.8 181.54 19.2233 195.258 28.0079 204.67C36.813 214.104 49.7256 218.92 66.08 218.92V214.92ZM18.8 164.28V68.52H14.8V164.28H18.8ZM16.8 70.52H48.72V66.52H16.8V70.52ZM46.72 68.52V151.12H50.72V68.52H46.72ZM46.72 151.12C46.72 161.51 46.96 171.759 50.8986 179.374C52.912 183.267 55.8873 186.479 60.2121 188.692C64.5024 190.888 70.0033 192.04 77 192.04V188.04C70.4167 188.04 65.5926 186.952 62.0342 185.131C58.5102 183.328 56.113 180.748 54.4514 177.536C51.04 170.941 50.72 161.73 50.72 151.12H46.72ZM77 192.04C90.3987 192.04 99.7103 186.394 105.582 177.53C111.377 168.781 113.72 157.069 113.72 144.96H109.72C109.72 156.651 107.443 167.479 102.248 175.32C97.1297 183.046 89.0813 188.04 77 188.04V192.04ZM113.72 144.96V68.52H109.72V144.96H113.72ZM111.72 70.52H143.64V66.52H111.72V70.52ZM259.341 65.72H261.341V63.8936L259.522 63.7282L259.341 65.72ZM259.341 96.24L259.142 98.2301L261.341 98.45V96.24H259.341ZM206.421 213V215H208.421V213H206.421ZM174.781 213H172.781V215H174.781V213ZM174.781 68.52V66.52H172.781V68.52H174.781ZM204.741 68.52H206.741V66.52H204.741V68.52ZM204.741 97.36H202.741L206.545 98.2238L204.741 97.36ZM257.341 65.72V96.24H261.341V65.72H257.341ZM259.54 94.2499C253.992 93.6951 251.627 93.4 248.141 93.4V97.4C251.376 97.4 253.49 97.6649 259.142 98.2301L259.54 94.2499ZM248.141 93.4C231.736 93.4 220.641 99.618 213.751 109.972C206.956 120.183 204.421 134.161 204.421 149.44H208.421C208.421 134.479 210.926 121.437 217.081 112.188C223.141 103.082 232.906 97.4 248.141 97.4V93.4ZM204.421 149.44V213H208.421V149.44H204.421ZM206.421 211H174.781V215H206.421V211ZM176.781 213V68.52H172.781V213H176.781ZM174.781 70.52H204.741V66.52H174.781V70.52ZM202.741 68.52V97.36H206.741V68.52H202.741ZM206.545 98.2238C211.191 88.5212 217.288 80.7723 224.957 75.4478C232.61 70.1343 241.935 67.16 253.181 67.16V63.16C241.188 63.16 231.053 66.3457 222.676 72.1622C214.314 77.9677 207.811 86.3188 202.937 96.4962L206.545 98.2238ZM253.181 67.16C255.038 67.16 255.814 67.4076 259.16 67.7118L259.522 63.7282C256.709 63.4724 255.245 63.16 253.181 63.16V67.16ZM307.939 13.64H309.939V11.64H307.939V13.64ZM307.939 87.28H305.939V93.5581L309.57 88.4368L307.939 87.28ZM306.259 193.4L307.961 192.35L304.259 186.346V193.4H306.259ZM306.259 213V215H308.259V213H306.259ZM276.299 213H274.299V215H276.299V213ZM276.299 13.64V11.64H274.299V13.64H276.299ZM347.139 90.36L347.117 92.3599L347.128 92.36H347.139V90.36ZM305.939 13.64V87.28H309.939V13.64H305.939ZM309.57 88.4368C320.027 73.6901 337.258 66.88 355.259 66.88V62.88C336.3 62.88 317.691 70.0699 306.307 86.1231L309.57 88.4368ZM355.259 66.88C374.028 66.88 389.419 74.0694 400.147 86.6525C410.901 99.2666 417.099 117.46 417.099 139.64H421.099C421.099 116.74 414.697 97.5534 403.191 84.0574C391.658 70.5306 375.129 62.88 355.259 62.88V66.88ZM417.099 139.64C417.099 162.519 410.691 181.346 399.618 194.417C388.57 207.458 372.759 214.92 353.579 214.92V218.92C373.879 218.92 390.827 210.982 402.67 197.003C414.486 183.054 421.099 163.241 421.099 139.64H417.099ZM353.579 214.92C334.44 214.92 317.849 208.385 307.961 192.35L304.556 194.45C315.388 212.015 333.518 218.92 353.579 218.92V214.92ZM304.259 193.4V213H308.259V193.4H304.259ZM306.259 211H276.299V215H306.259V211ZM278.299 213V13.64H274.299V213H278.299ZM276.299 15.64H307.939V11.64H276.299V15.64ZM347.161 88.3601C333.992 88.2138 323.305 93.2156 315.961 102.488C308.665 111.7 304.819 124.931 304.819 141.04H308.819C308.819 125.509 312.532 113.26 319.097 104.972C325.613 96.7444 335.086 92.2262 347.117 92.3599L347.161 88.3601ZM304.819 141.04C304.819 156.886 308.743 169.908 316.076 179.01C323.45 188.162 334.122 193.16 347.139 193.16V189.16C335.236 189.16 325.747 184.638 319.191 176.5C312.594 168.312 308.819 156.274 308.819 141.04H304.819ZM347.139 193.16C359.795 193.16 370.317 187.836 377.626 178.46C384.899 169.129 388.899 155.918 388.899 140.2H384.899C384.899 155.282 381.058 167.551 374.471 176C367.921 184.404 358.563 189.16 347.139 189.16V193.16ZM388.899 140.2C388.899 124.626 384.971 111.682 377.717 102.588C370.426 93.4454 359.899 88.36 347.139 88.36V92.36C358.739 92.36 368.092 96.9346 374.59 105.082C381.127 113.278 384.899 125.254 384.899 140.2H388.899ZM445.791 113.04L443.801 112.836L443.575 115.04H445.791V113.04ZM583.271 191.16H585.271V188.854L582.988 189.18L583.271 191.16ZM583.271 213.56L583.756 215.5L585.271 215.122V213.56H583.271ZM539.031 199.28L541 198.93L540.346 195.252L537.647 197.835L539.031 199.28ZM504.311 127.88L504.561 129.864L504.562 129.864L504.311 127.88ZM535.951 119.48L534.414 118.2L534.374 118.247L534.338 118.297L535.951 119.48ZM476.031 113.04V115.04H477.78L478.013 113.306L476.031 113.04ZM537.631 140.48H539.631V137.045L536.643 138.741L537.631 140.48ZM504.031 148.32L503.741 146.341L503.732 146.342L504.031 148.32ZM531.191 182.48L532.605 183.894L531.191 182.48ZM447.78 113.244C449.553 95.927 456.322 84.2465 466.726 76.8339C477.208 69.3661 491.644 66.04 509.071 66.04V62.04C491.218 62.04 475.833 65.4339 464.405 73.5761C452.899 81.7735 445.668 94.5929 443.801 112.836L447.78 113.244ZM509.071 66.04C525.957 66.04 540.345 69.163 550.453 75.8899C560.438 82.536 566.431 92.8158 566.431 107.72H570.431C570.431 91.5442 563.823 79.984 552.669 72.56C541.636 65.217 526.344 62.04 509.071 62.04V66.04ZM566.431 107.72V181.08H570.431V107.72H566.431ZM566.431 181.08C566.431 185.247 566.809 188.526 568.381 190.716C570.122 193.144 572.884 193.72 575.991 193.72V189.72C573.218 189.72 572.199 189.176 571.631 188.384C570.892 187.354 570.431 185.313 570.431 181.08H566.431ZM575.991 193.72C578.313 193.72 579.529 193.715 583.553 193.14L582.988 189.18C579.173 189.725 578.148 189.72 575.991 189.72V193.72ZM581.271 191.16V213.56H585.271V191.16H581.271ZM582.786 211.62C572.805 214.115 568.496 214.64 562.551 214.64V218.64C568.926 218.64 573.576 218.045 583.756 215.5L582.786 211.62ZM562.551 214.64C556.618 214.64 551.745 213.49 548.136 211.032C544.587 208.615 542.04 204.784 541 198.93L537.062 199.63C538.261 206.376 541.314 211.225 545.885 214.338C550.396 217.41 556.163 218.64 562.551 218.64V214.64ZM537.647 197.835C524.996 209.948 507.101 214.64 488.351 214.64V218.64C507.68 218.64 526.745 213.812 540.414 200.725L537.647 197.835ZM488.351 214.64C473.725 214.64 462.061 210.61 454.08 203.556C446.128 196.528 441.631 186.322 441.631 173.52H437.631C437.631 187.318 442.513 198.672 451.431 206.554C460.32 214.41 473.016 218.64 488.351 218.64V214.64ZM441.631 173.52C441.631 164.254 443.79 157.231 447.352 151.817C450.92 146.394 455.989 142.441 462.036 139.476C474.236 133.495 490.023 131.699 504.561 129.864L504.06 125.896C489.758 127.701 473.205 129.545 460.275 135.884C453.758 139.079 448.064 143.456 444.01 149.618C439.951 155.789 437.631 163.606 437.631 173.52H441.631ZM504.562 129.864C515.594 128.468 522.864 127.404 527.769 126.142C532.702 124.872 535.62 123.313 537.563 120.663L534.338 118.297C533.202 119.847 531.36 121.088 526.772 122.268C522.157 123.456 515.147 124.492 504.059 125.896L504.562 129.864ZM537.487 120.76C538.506 119.538 539.081 117.886 539.423 116.026C539.769 114.14 539.911 111.833 539.911 109.12H535.911C535.911 111.727 535.772 113.76 535.489 115.304C535.2 116.874 534.795 117.742 534.414 118.2L537.487 120.76ZM539.911 109.12C539.911 101.233 537.35 95.0957 531.816 91.024C526.408 87.0455 518.474 85.28 508.231 85.28V89.28C518.147 89.28 525.053 91.0144 529.445 94.246C533.711 97.3843 535.911 102.167 535.911 109.12H539.911ZM508.231 85.28C497.708 85.28 489.734 87.0445 484.06 91.5601C478.342 96.1115 475.342 103.147 474.048 112.774L478.013 113.306C479.24 104.173 481.979 98.3285 486.551 94.6898C491.168 91.0155 498.033 89.28 508.231 89.28V85.28ZM476.031 111.04H445.791V115.04H476.031V111.04ZM536.643 138.741C531.736 141.526 526.451 143.012 520.898 144.006C515.227 145.022 509.687 145.471 503.741 146.341L504.32 150.299C509.855 149.489 515.934 148.958 521.603 147.944C527.39 146.908 533.165 145.314 538.618 142.219L536.643 138.741ZM503.732 146.342C496.392 147.45 488.103 148.744 481.675 152.311C478.414 154.121 475.563 156.548 473.538 159.882C471.511 163.219 470.391 167.336 470.391 172.4H474.391C474.391 167.944 475.37 164.571 476.957 161.958C478.546 159.342 480.823 157.359 483.616 155.809C489.299 152.656 496.829 151.43 504.329 150.298L503.732 146.342ZM470.391 172.4C470.391 179.758 472.966 185.753 477.941 189.866C482.862 193.935 489.884 195.96 498.431 195.96V191.96C490.457 191.96 484.459 190.065 480.49 186.784C476.575 183.547 474.391 178.762 474.391 172.4H470.391ZM498.431 195.96C511.942 195.96 524.84 191.659 532.605 183.894L529.776 181.066C522.981 187.861 511.239 191.96 498.431 191.96V195.96ZM532.605 183.894C540.023 176.476 539.631 165.991 539.631 157.56H535.631C535.631 166.489 535.799 175.044 529.776 181.066L532.605 183.894ZM539.631 157.56V140.48H535.631V157.56H539.631Z" fill="#020202" mask="url(#path-1-outside-1_83_237)"/>
<mask id="path-3-outside-2_83_237" maskUnits="userSpaceOnUse" x="245" y="128" width="527" height="197" fill="black">
<rect fill="white" x="245" y="128" width="527" height="197"/>
<path d="M282.6 318H248.16L282.04 197.32C282.787 194.707 283.347 192.28 283.72 190.04C284.093 187.8 283.907 185.933 283.16 184.44C282.6 182.947 281.013 182.2 278.4 182.2C274.853 182.2 271.587 183.973 268.6 187.52C265.8 190.88 262.72 197.133 259.36 206.28L254.6 219.44H249.28L256.56 198.44C260.48 187.427 265.52 179.867 271.68 175.76C277.84 171.653 284.653 169.6 292.12 169.6C298.28 169.6 302.947 170.813 306.12 173.24C309.48 175.667 311.627 178.84 312.56 182.76C313.493 186.493 313.68 190.693 313.12 195.36C312.56 199.84 311.72 204.32 310.6 208.8L282.6 318ZM292.96 267.04C299.867 247.813 306.493 231.947 312.84 219.44C319.187 206.933 325.347 197.04 331.32 189.76C337.293 182.293 343.453 177.067 349.8 174.08C356.147 171.093 362.773 169.6 369.68 169.6C378.827 169.6 385.173 171.653 388.72 175.76C392.453 179.68 394.227 184.907 394.04 191.44C394.04 197.787 392.827 204.6 390.4 211.88L362.96 294.2C361.28 299.24 360.813 303.067 361.56 305.68C362.307 308.107 364.173 309.32 367.16 309.32C369.96 309.32 372.853 307.733 375.84 304.56C379.013 301.387 382.373 294.947 385.92 285.24L390.4 272.64H395.72L388.72 293.08C386.107 300.92 382.747 306.893 378.64 311C374.72 315.107 370.427 317.907 365.76 319.4C361.28 321.08 356.8 321.92 352.32 321.92C347.467 321.92 343.267 321.08 339.72 319.4C336.36 317.907 333.747 315.76 331.88 312.96C329.453 309.413 328.427 304.84 328.8 299.24C329.173 293.64 330.667 286.92 333.28 279.08L358.76 202.08C359.693 199.093 360.44 196.107 361 193.12C361.56 189.947 361.467 187.333 360.72 185.28C359.973 183.04 358.013 181.92 354.84 181.92C350.92 181.92 346.627 184.16 341.96 188.64C337.293 192.933 332.44 199 327.4 206.84C322.36 214.68 317.32 223.827 312.28 234.28C307.24 244.733 302.387 256.12 297.72 268.44C293.24 280.573 289.227 293.173 285.68 306.24L292.96 267.04ZM440.997 256.4C449.77 253.04 457.797 249.587 465.077 246.04C472.544 242.307 478.797 238.387 483.837 234.28C490.744 228.12 496.344 220.933 500.637 212.72C504.93 204.32 507.077 195.173 507.077 185.28C507.077 180.987 506.704 178.187 505.957 176.88C505.21 175.573 504.09 174.92 502.597 174.92C498.304 174.92 493.637 176.973 488.597 181.08C483.557 185.187 478.61 190.88 473.757 198.16C468.904 205.253 464.424 213.28 460.317 222.24C456.397 231.2 453.224 240.627 450.797 250.52C448.37 260.413 447.157 270.213 447.157 279.92C447.157 289.813 449.024 296.813 452.757 300.92C456.677 304.84 461.81 306.8 468.157 306.8C473.57 306.8 480.01 305.027 487.477 301.48C494.944 297.933 502.317 291.493 509.597 282.16L514.077 284.4C510.344 290.56 505.397 296.533 499.237 302.32C493.077 308.107 485.984 312.867 477.957 316.6C470.117 320.147 461.437 321.92 451.917 321.92C444.077 321.92 436.984 320.427 430.637 317.44C424.29 314.453 419.344 310.067 415.797 304.28C412.25 298.307 410.477 291.027 410.477 282.44C410.477 273.293 412.064 263.587 415.237 253.32C418.41 242.867 422.89 232.693 428.677 222.8C434.65 212.907 441.65 203.947 449.677 195.92C457.89 187.893 466.944 181.547 476.837 176.88C486.73 172.027 497.37 169.6 508.757 169.6C516.224 169.6 522.477 171.373 527.517 174.92C532.557 178.28 535.077 183.507 535.077 190.6C535.077 197.88 533.024 204.693 528.917 211.04C524.81 217.387 519.21 223.173 512.117 228.4C505.21 233.627 497.557 238.293 489.157 242.4C480.944 246.507 472.637 250.053 464.237 253.04C455.837 256.027 447.997 258.453 440.717 260.32L440.997 256.4Z"/>
<path d="M667.812 215.52H637.292C635.052 197.88 623.012 192.56 605.932 192.56C589.692 192.56 580.172 198.72 580.172 209.36C580.172 223.92 593.892 225.04 617.132 230.36C642.332 236.24 673.132 242.68 673.132 274.6C673.132 303.72 648.772 322.2 610.132 322.2C569.252 322.2 546.852 304.84 545.172 271.8H575.692C577.372 290.84 590.812 298.96 610.692 298.96C629.452 298.96 641.772 290.84 641.772 277.96C641.772 263.4 625.532 260.88 607.332 256.4C574.292 248.28 548.252 244.08 548.252 213C548.252 185.56 570.372 169.32 607.332 169.32C640.372 169.32 667.812 182.76 667.812 215.52ZM769.048 173.52V196.76H739.928V272.92C739.928 286.64 739.648 293.64 756.448 293.64C760.928 293.64 764.288 293.64 769.048 293.08V318.28C759.528 319.4 755.607 319.4 747.488 319.4C705.488 319.4 708.008 298.4 708.008 265.64V196.76H683.928V173.52H708.008V130.12H739.928V173.52H769.048Z"/>
</mask>
<path d="M282.6 318H248.16L282.04 197.32C282.787 194.707 283.347 192.28 283.72 190.04C284.093 187.8 283.907 185.933 283.16 184.44C282.6 182.947 281.013 182.2 278.4 182.2C274.853 182.2 271.587 183.973 268.6 187.52C265.8 190.88 262.72 197.133 259.36 206.28L254.6 219.44H249.28L256.56 198.44C260.48 187.427 265.52 179.867 271.68 175.76C277.84 171.653 284.653 169.6 292.12 169.6C298.28 169.6 302.947 170.813 306.12 173.24C309.48 175.667 311.627 178.84 312.56 182.76C313.493 186.493 313.68 190.693 313.12 195.36C312.56 199.84 311.72 204.32 310.6 208.8L282.6 318ZM292.96 267.04C299.867 247.813 306.493 231.947 312.84 219.44C319.187 206.933 325.347 197.04 331.32 189.76C337.293 182.293 343.453 177.067 349.8 174.08C356.147 171.093 362.773 169.6 369.68 169.6C378.827 169.6 385.173 171.653 388.72 175.76C392.453 179.68 394.227 184.907 394.04 191.44C394.04 197.787 392.827 204.6 390.4 211.88L362.96 294.2C361.28 299.24 360.813 303.067 361.56 305.68C362.307 308.107 364.173 309.32 367.16 309.32C369.96 309.32 372.853 307.733 375.84 304.56C379.013 301.387 382.373 294.947 385.92 285.24L390.4 272.64H395.72L388.72 293.08C386.107 300.92 382.747 306.893 378.64 311C374.72 315.107 370.427 317.907 365.76 319.4C361.28 321.08 356.8 321.92 352.32 321.92C347.467 321.92 343.267 321.08 339.72 319.4C336.36 317.907 333.747 315.76 331.88 312.96C329.453 309.413 328.427 304.84 328.8 299.24C329.173 293.64 330.667 286.92 333.28 279.08L358.76 202.08C359.693 199.093 360.44 196.107 361 193.12C361.56 189.947 361.467 187.333 360.72 185.28C359.973 183.04 358.013 181.92 354.84 181.92C350.92 181.92 346.627 184.16 341.96 188.64C337.293 192.933 332.44 199 327.4 206.84C322.36 214.68 317.32 223.827 312.28 234.28C307.24 244.733 302.387 256.12 297.72 268.44C293.24 280.573 289.227 293.173 285.68 306.24L292.96 267.04ZM440.997 256.4C449.77 253.04 457.797 249.587 465.077 246.04C472.544 242.307 478.797 238.387 483.837 234.28C490.744 228.12 496.344 220.933 500.637 212.72C504.93 204.32 507.077 195.173 507.077 185.28C507.077 180.987 506.704 178.187 505.957 176.88C505.21 175.573 504.09 174.92 502.597 174.92C498.304 174.92 493.637 176.973 488.597 181.08C483.557 185.187 478.61 190.88 473.757 198.16C468.904 205.253 464.424 213.28 460.317 222.24C456.397 231.2 453.224 240.627 450.797 250.52C448.37 260.413 447.157 270.213 447.157 279.92C447.157 289.813 449.024 296.813 452.757 300.92C456.677 304.84 461.81 306.8 468.157 306.8C473.57 306.8 480.01 305.027 487.477 301.48C494.944 297.933 502.317 291.493 509.597 282.16L514.077 284.4C510.344 290.56 505.397 296.533 499.237 302.32C493.077 308.107 485.984 312.867 477.957 316.6C470.117 320.147 461.437 321.92 451.917 321.92C444.077 321.92 436.984 320.427 430.637 317.44C424.29 314.453 419.344 310.067 415.797 304.28C412.25 298.307 410.477 291.027 410.477 282.44C410.477 273.293 412.064 263.587 415.237 253.32C418.41 242.867 422.89 232.693 428.677 222.8C434.65 212.907 441.65 203.947 449.677 195.92C457.89 187.893 466.944 181.547 476.837 176.88C486.73 172.027 497.37 169.6 508.757 169.6C516.224 169.6 522.477 171.373 527.517 174.92C532.557 178.28 535.077 183.507 535.077 190.6C535.077 197.88 533.024 204.693 528.917 211.04C524.81 217.387 519.21 223.173 512.117 228.4C505.21 233.627 497.557 238.293 489.157 242.4C480.944 246.507 472.637 250.053 464.237 253.04C455.837 256.027 447.997 258.453 440.717 260.32L440.997 256.4Z" fill="black"/>
<path d="M667.812 215.52H637.292C635.052 197.88 623.012 192.56 605.932 192.56C589.692 192.56 580.172 198.72 580.172 209.36C580.172 223.92 593.892 225.04 617.132 230.36C642.332 236.24 673.132 242.68 673.132 274.6C673.132 303.72 648.772 322.2 610.132 322.2C569.252 322.2 546.852 304.84 545.172 271.8H575.692C577.372 290.84 590.812 298.96 610.692 298.96C629.452 298.96 641.772 290.84 641.772 277.96C641.772 263.4 625.532 260.88 607.332 256.4C574.292 248.28 548.252 244.08 548.252 213C548.252 185.56 570.372 169.32 607.332 169.32C640.372 169.32 667.812 182.76 667.812 215.52ZM769.048 173.52V196.76H739.928V272.92C739.928 286.64 739.648 293.64 756.448 293.64C760.928 293.64 764.288 293.64 769.048 293.08V318.28C759.528 319.4 755.607 319.4 747.488 319.4C705.488 319.4 708.008 298.4 708.008 265.64V196.76H683.928V173.52H708.008V130.12H739.928V173.52H769.048Z" fill="#F3F1EB"/>
<path d="M282.6 318V320H284.152L284.537 318.497L282.6 318ZM248.16 318L246.234 317.459L245.521 320H248.16V318ZM282.04 197.32L280.117 196.771L280.114 196.779L282.04 197.32ZM283.72 190.04L285.693 190.369L283.72 190.04ZM283.16 184.44L281.287 185.142L281.324 185.241L281.371 185.334L283.16 184.44ZM268.6 187.52L267.07 186.232L267.064 186.24L268.6 187.52ZM259.36 206.28L257.483 205.59L257.479 205.6L259.36 206.28ZM254.6 219.44V221.44H256.003L256.481 220.12L254.6 219.44ZM249.28 219.44L247.39 218.785L246.47 221.44H249.28V219.44ZM256.56 198.44L254.676 197.769L254.673 197.777L254.67 197.785L256.56 198.44ZM271.68 175.76L272.789 177.424L272.789 177.424L271.68 175.76ZM306.12 173.24L304.905 174.829L304.927 174.845L304.949 174.861L306.12 173.24ZM312.56 182.76L310.614 183.223L310.617 183.234L310.62 183.245L312.56 182.76ZM313.12 195.36L315.105 195.608L315.106 195.598L313.12 195.36ZM310.6 208.8L312.537 209.297L312.54 209.285L310.6 208.8ZM292.96 267.04L291.078 266.364L291.023 266.516L290.994 266.675L292.96 267.04ZM312.84 219.44L314.624 220.345L314.624 220.345L312.84 219.44ZM331.32 189.76L332.866 191.029L332.874 191.019L332.882 191.009L331.32 189.76ZM349.8 174.08L350.652 175.89L350.652 175.89L349.8 174.08ZM388.72 175.76L387.206 177.067L387.238 177.104L387.272 177.139L388.72 175.76ZM394.04 191.44L392.041 191.383L392.04 191.411V191.44H394.04ZM390.4 211.88L388.503 211.248L388.503 211.248L390.4 211.88ZM362.96 294.2L364.857 294.832L364.857 294.832L362.96 294.2ZM361.56 305.68L359.637 306.229L359.643 306.249L359.648 306.268L361.56 305.68ZM375.84 304.56L374.426 303.146L374.404 303.167L374.384 303.189L375.84 304.56ZM385.92 285.24L387.799 285.926L387.802 285.918L387.804 285.91L385.92 285.24ZM390.4 272.64V270.64H388.988L388.516 271.97L390.4 272.64ZM395.72 272.64L397.612 273.288L398.519 270.64H395.72V272.64ZM388.72 293.08L386.828 292.432L386.825 292.44L386.823 292.448L388.72 293.08ZM378.64 311L377.226 309.586L377.209 309.602L377.193 309.619L378.64 311ZM365.76 319.4L365.15 317.495L365.104 317.51L365.058 317.527L365.76 319.4ZM339.72 319.4L340.576 317.593L340.554 317.582L340.532 317.572L339.72 319.4ZM331.88 312.96L333.544 311.851L333.537 311.841L333.531 311.831L331.88 312.96ZM328.8 299.24L326.804 299.107L326.804 299.107L328.8 299.24ZM333.28 279.08L335.177 279.712L335.179 279.708L333.28 279.08ZM358.76 202.08L360.659 202.708L360.664 202.692L360.669 202.677L358.76 202.08ZM361 193.12L362.966 193.489L362.968 193.478L362.97 193.468L361 193.12ZM360.72 185.28L358.823 185.912L358.831 185.938L358.84 185.963L360.72 185.28ZM341.96 188.64L343.314 190.112L343.33 190.097L343.345 190.083L341.96 188.64ZM327.4 206.84L325.718 205.758L325.718 205.758L327.4 206.84ZM312.28 234.28L310.478 233.411L310.478 233.411L312.28 234.28ZM297.72 268.44L295.85 267.732L295.847 267.739L295.844 267.747L297.72 268.44ZM285.68 306.24L283.714 305.875L287.61 306.764L285.68 306.24ZM282.6 316H248.16V320H282.6V316ZM250.086 318.541L283.966 197.861L280.114 196.779L246.234 317.459L250.086 318.541ZM283.963 197.869C284.727 195.197 285.305 192.696 285.693 190.369L281.747 189.711C281.388 191.864 280.847 194.216 280.117 196.771L283.963 197.869ZM285.693 190.369C286.111 187.859 285.942 185.532 284.949 183.546L281.371 185.334C281.871 186.335 282.076 187.741 281.747 189.711L285.693 190.369ZM285.033 183.738C284.014 181.022 281.246 180.2 278.4 180.2V184.2C280.781 184.2 281.186 184.872 281.287 185.142L285.033 183.738ZM278.4 180.2C274.094 180.2 270.312 182.382 267.07 186.232L270.13 188.808C272.861 185.564 275.613 184.2 278.4 184.2V180.2ZM267.064 186.24C264.025 189.886 260.849 196.427 257.483 205.59L261.237 206.97C264.591 197.839 267.575 191.874 270.136 188.8L267.064 186.24ZM257.479 205.6L252.719 218.76L256.481 220.12L261.241 206.96L257.479 205.6ZM254.6 217.44H249.28V221.44H254.6V217.44ZM251.17 220.095L258.45 199.095L254.67 197.785L247.39 218.785L251.17 220.095ZM258.444 199.111C262.298 188.285 267.142 181.189 272.789 177.424L270.571 174.096C263.898 178.544 258.662 186.569 254.676 197.769L258.444 199.111ZM272.789 177.424C278.618 173.538 285.045 171.6 292.12 171.6V167.6C284.262 167.6 277.062 169.768 270.571 174.096L272.789 177.424ZM292.12 171.6C298.065 171.6 302.224 172.779 304.905 174.829L307.335 171.651C303.669 168.848 298.495 167.6 292.12 167.6V171.6ZM304.949 174.861C307.932 177.016 309.796 179.784 310.614 183.223L314.506 182.297C313.458 177.896 311.028 174.317 307.291 171.619L304.949 174.861ZM310.62 183.245C311.482 186.696 311.671 190.645 311.134 195.122L315.106 195.598C315.689 190.742 315.504 186.29 314.5 182.275L310.62 183.245ZM311.135 195.112C310.586 199.51 309.761 203.911 308.66 208.315L312.54 209.285C313.679 204.729 314.534 200.17 315.105 195.608L311.135 195.112ZM308.663 208.303L280.663 317.503L284.537 318.497L312.537 209.297L308.663 208.303ZM294.842 267.716C301.732 248.536 308.327 232.752 314.624 220.345L311.057 218.535C304.659 231.141 298.001 247.091 291.078 266.364L294.842 267.716ZM314.624 220.345C320.933 207.911 327.018 198.156 332.866 191.029L329.774 188.491C323.676 195.924 317.44 205.955 311.057 218.535L314.624 220.345ZM332.882 191.009C338.73 183.699 344.663 178.708 350.652 175.89L348.948 172.27C342.244 175.425 335.857 180.887 329.758 188.511L332.882 191.009ZM350.652 175.89C356.736 173.026 363.072 171.6 369.68 171.6V167.6C362.474 167.6 355.557 169.16 348.948 172.27L350.652 175.89ZM369.68 171.6C378.629 171.6 384.234 173.625 387.206 177.067L390.234 174.453C386.113 169.681 379.024 167.6 369.68 167.6V171.6ZM387.272 177.139C390.563 180.595 392.216 185.264 392.041 191.383L396.039 191.497C396.238 184.549 394.344 178.765 390.168 174.381L387.272 177.139ZM392.04 191.44C392.04 197.532 390.875 204.13 388.503 211.248L392.297 212.512C394.778 205.07 396.04 198.041 396.04 191.44H392.04ZM388.503 211.248L361.063 293.568L364.857 294.832L392.297 212.512L388.503 211.248ZM361.063 293.568C359.357 298.684 358.716 303.005 359.637 306.229L363.483 305.131C362.911 303.129 363.203 299.796 364.857 294.832L361.063 293.568ZM359.648 306.268C360.139 307.863 361.049 309.189 362.43 310.087C363.781 310.965 365.409 311.32 367.16 311.32V307.32C365.925 307.32 365.126 307.068 364.61 306.733C364.124 306.417 363.728 305.924 363.472 305.092L359.648 306.268ZM367.16 311.32C370.754 311.32 374.138 309.286 377.296 305.931L374.384 303.189C371.568 306.181 369.166 307.32 367.16 307.32V311.32ZM377.254 305.974C380.768 302.46 384.249 295.64 387.799 285.926L384.041 284.554C380.497 294.253 377.258 300.313 374.426 303.146L377.254 305.974ZM387.804 285.91L392.284 273.31L388.516 271.97L384.036 284.57L387.804 285.91ZM390.4 274.64H395.72V270.64H390.4V274.64ZM393.828 271.992L386.828 292.432L390.612 293.728L397.612 273.288L393.828 271.992ZM386.823 292.448C384.269 300.109 381.04 305.771 377.226 309.586L380.054 312.414C384.453 308.015 387.945 301.731 390.617 293.712L386.823 292.448ZM377.193 309.619C373.467 313.522 369.451 316.119 365.15 317.495L366.37 321.305C371.402 319.694 375.973 316.691 380.087 312.381L377.193 309.619ZM365.058 317.527C360.787 319.129 356.544 319.92 352.32 319.92V323.92C357.056 323.92 361.773 323.031 366.462 321.273L365.058 317.527ZM352.32 319.92C347.694 319.92 343.8 319.119 340.576 317.593L338.864 321.207C342.734 323.041 347.239 323.92 352.32 323.92V319.92ZM340.532 317.572C337.485 316.218 335.181 314.306 333.544 311.851L330.216 314.069C332.312 317.214 335.235 319.595 338.908 321.228L340.532 317.572ZM333.531 311.831C331.426 308.754 330.443 304.663 330.796 299.373L326.804 299.107C326.41 305.017 327.481 310.073 330.229 314.089L333.531 311.831ZM330.796 299.373C331.154 294.002 332.595 287.459 335.177 279.712L331.383 278.448C328.738 286.381 327.193 293.278 326.804 299.107L330.796 299.373ZM335.179 279.708L360.659 202.708L356.861 201.452L331.381 278.452L335.179 279.708ZM360.669 202.677C361.625 199.617 362.391 196.555 362.966 193.489L359.034 192.751C358.489 195.659 357.762 198.569 356.851 201.483L360.669 202.677ZM362.97 193.468C363.564 190.102 363.51 187.1 362.6 184.597L358.84 185.963C359.423 187.567 359.556 189.792 359.03 192.772L362.97 193.468ZM362.617 184.648C362.096 183.084 361.111 181.84 359.682 181.024C358.302 180.235 356.641 179.92 354.84 179.92V183.92C356.212 183.92 357.118 184.165 357.698 184.496C358.229 184.8 358.597 185.236 358.823 185.912L362.617 184.648ZM354.84 179.92C350.156 179.92 345.385 182.579 340.575 187.197L343.345 190.083C347.868 185.741 351.684 183.92 354.84 183.92V179.92ZM340.606 187.168C335.77 191.617 330.811 197.835 325.718 205.758L329.082 207.922C334.069 200.165 338.817 194.249 343.314 190.112L340.606 187.168ZM325.718 205.758C320.625 213.681 315.546 222.902 310.478 233.411L314.082 235.149C319.094 224.752 324.095 215.679 329.082 207.922L325.718 205.758ZM310.478 233.411C305.41 243.924 300.534 255.364 295.85 267.732L299.59 269.148C304.239 256.876 309.07 245.543 314.082 235.149L310.478 233.411ZM295.844 267.747C291.342 279.939 287.311 292.595 283.75 305.716L287.61 306.764C291.142 293.752 295.138 281.208 299.596 269.133L295.844 267.747ZM287.646 306.605L294.926 267.405L290.994 266.675L283.714 305.875L287.646 306.605ZM440.997 256.4L440.282 254.532L439.093 254.988L439.002 256.258L440.997 256.4ZM465.077 246.04L465.953 247.838L465.962 247.833L465.971 247.829L465.077 246.04ZM483.837 234.28L485.1 235.83L485.135 235.802L485.168 235.773L483.837 234.28ZM500.637 212.72L502.409 213.647L502.414 213.638L502.418 213.63L500.637 212.72ZM505.957 176.88L504.22 177.872L504.22 177.872L505.957 176.88ZM488.597 181.08L489.86 182.63L489.86 182.63L488.597 181.08ZM473.757 198.16L475.407 199.289L475.414 199.279L475.421 199.269L473.757 198.16ZM460.317 222.24L458.499 221.407L458.492 221.422L458.485 221.438L460.317 222.24ZM450.797 250.52L448.854 250.044L448.854 250.044L450.797 250.52ZM452.757 300.92L451.277 302.265L451.309 302.301L451.343 302.334L452.757 300.92ZM487.477 301.48L488.335 303.287L488.335 303.287L487.477 301.48ZM509.597 282.16L510.491 280.371L509.027 279.639L508.02 280.93L509.597 282.16ZM514.077 284.4L515.787 285.437L516.912 283.581L514.971 282.611L514.077 284.4ZM499.237 302.32L500.606 303.778L500.606 303.778L499.237 302.32ZM477.957 316.6L478.781 318.422L478.791 318.418L478.8 318.413L477.957 316.6ZM430.637 317.44L429.785 319.25L429.785 319.25L430.637 317.44ZM415.797 304.28L414.077 305.301L414.084 305.313L414.092 305.325L415.797 304.28ZM415.237 253.32L417.148 253.911L417.151 253.901L415.237 253.32ZM428.677 222.8L426.965 221.766L426.958 221.778L426.951 221.79L428.677 222.8ZM449.677 195.92L448.279 194.49L448.271 194.498L448.263 194.506L449.677 195.92ZM476.837 176.88L477.69 178.689L477.704 178.682L477.718 178.676L476.837 176.88ZM527.517 174.92L526.366 176.556L526.387 176.57L526.407 176.584L527.517 174.92ZM528.917 211.04L527.238 209.953L527.238 209.953L528.917 211.04ZM512.117 228.4L510.93 226.79L510.92 226.797L510.91 226.805L512.117 228.4ZM489.157 242.4L488.278 240.603L488.27 240.607L488.262 240.611L489.157 242.4ZM440.717 260.32L438.722 260.178L438.524 262.947L441.214 262.257L440.717 260.32ZM441.712 258.268C450.532 254.89 458.613 251.414 465.953 247.838L464.201 244.242C456.981 247.759 449.009 251.19 440.282 254.532L441.712 258.268ZM465.971 247.829C473.534 244.047 479.92 240.052 485.1 235.83L482.574 232.73C477.674 236.722 471.553 240.566 464.182 244.251L465.971 247.829ZM485.168 235.773C492.255 229.452 498.004 222.073 502.409 213.647L498.864 211.793C494.683 219.793 489.232 226.788 482.506 232.787L485.168 235.773ZM502.418 213.63C506.862 204.935 509.077 195.474 509.077 185.28H505.077C505.077 194.873 502.998 203.705 498.856 211.81L502.418 213.63ZM509.077 185.28C509.077 183.085 508.982 181.216 508.779 179.696C508.583 178.224 508.263 176.885 507.693 175.888L504.22 177.872C504.397 178.182 504.637 178.896 504.814 180.224C504.985 181.504 505.077 183.181 505.077 185.28H509.077ZM507.693 175.888C506.594 173.964 504.815 172.92 502.597 172.92V176.92C503.366 176.92 503.826 177.183 504.22 177.872L507.693 175.888ZM502.597 172.92C497.659 172.92 492.555 175.275 487.334 179.53L489.86 182.63C494.719 178.672 498.948 176.92 502.597 176.92V172.92ZM487.334 179.53C482.096 183.797 477.021 189.658 472.093 197.051L475.421 199.269C480.199 192.102 485.018 186.576 489.86 182.63L487.334 179.53ZM472.106 197.031C467.18 204.23 462.646 212.358 458.499 221.407L462.135 223.073C466.201 214.202 470.627 206.276 475.407 199.289L472.106 197.031ZM458.485 221.438C454.517 230.508 451.307 240.043 448.854 250.044L452.739 250.996C455.14 241.21 458.277 231.892 462.149 223.042L458.485 221.438ZM448.854 250.044C446.391 260.085 445.157 270.045 445.157 279.92H449.157C449.157 270.382 450.349 260.742 452.739 250.996L448.854 250.044ZM445.157 279.92C445.157 289.958 447.03 297.594 451.277 302.265L454.237 299.575C451.017 296.033 449.157 289.668 449.157 279.92H445.157ZM451.343 302.334C455.693 306.684 461.363 308.8 468.157 308.8V304.8C462.257 304.8 457.661 302.996 454.171 299.506L451.343 302.334ZM468.157 308.8C473.982 308.8 480.728 306.9 488.335 303.287L486.619 299.673C479.292 303.154 473.158 304.8 468.157 304.8V308.8ZM488.335 303.287C496.178 299.561 503.779 292.87 511.174 283.39L508.02 280.93C500.854 290.117 493.709 296.305 486.619 299.673L488.335 303.287ZM508.702 283.949L513.182 286.189L514.971 282.611L510.491 280.371L508.702 283.949ZM512.366 283.363C508.742 289.344 503.918 295.179 497.868 300.862L500.606 303.778C506.876 297.888 511.945 291.776 515.787 285.437L512.366 283.363ZM497.868 300.862C491.87 306.496 484.956 311.139 477.113 314.787L478.8 318.413C487.011 314.595 494.284 309.717 500.606 303.778L497.868 300.862ZM477.133 314.778C469.578 318.195 461.183 319.92 451.917 319.92V323.92C461.691 323.92 470.656 322.098 478.781 318.422L477.133 314.778ZM451.917 319.92C444.336 319.92 437.539 318.478 431.488 315.63L429.785 319.25C436.428 322.376 443.817 323.92 451.917 323.92V319.92ZM431.488 315.63C425.482 312.804 420.838 308.677 417.502 303.235L414.092 305.325C417.849 311.456 423.098 316.103 429.785 319.25L431.488 315.63ZM417.517 303.259C414.192 297.66 412.477 290.752 412.477 282.44H408.477C408.477 291.302 410.308 298.954 414.077 305.301L417.517 303.259ZM412.477 282.44C412.477 273.525 414.023 264.019 417.148 253.911L413.326 252.729C410.104 263.155 408.477 273.062 408.477 282.44H412.477ZM417.151 253.901C420.276 243.605 424.692 233.575 430.403 223.81L426.951 221.79C421.089 231.812 416.544 242.129 413.323 252.739L417.151 253.901ZM430.389 223.834C436.28 214.076 443.181 205.244 451.091 197.334L448.263 194.506C440.12 202.649 433.02 211.737 426.965 221.766L430.389 223.834ZM451.075 197.35C459.137 189.471 468.008 183.256 477.69 178.689L475.984 175.071C465.879 179.837 456.644 186.315 448.279 194.49L451.075 197.35ZM477.718 178.676C487.328 173.961 497.665 171.6 508.757 171.6V167.6C497.075 167.6 486.133 170.092 475.956 175.084L477.718 178.676ZM508.757 171.6C515.9 171.6 521.729 173.292 526.366 176.556L528.668 173.284C523.225 169.454 516.547 167.6 508.757 167.6V171.6ZM526.407 176.584C530.789 179.505 533.077 184.043 533.077 190.6H537.077C537.077 182.97 534.325 177.055 528.626 173.256L526.407 176.584ZM533.077 190.6C533.077 197.479 531.143 203.917 527.238 209.953L530.596 212.126C534.904 205.469 537.077 198.281 537.077 190.6H533.077ZM527.238 209.953C523.282 216.067 517.861 221.683 510.93 226.79L513.303 230.01C520.559 224.663 526.338 218.707 530.596 212.126L527.238 209.953ZM510.91 226.805C504.114 231.948 496.572 236.549 488.278 240.603L490.035 244.197C498.542 240.038 506.307 235.305 513.324 229.995L510.91 226.805ZM488.262 240.611C480.12 244.683 471.888 248.197 463.567 251.156L464.907 254.924C473.386 251.91 481.767 248.331 490.051 244.189L488.262 240.611ZM463.567 251.156C455.214 254.126 447.432 256.533 440.22 258.383L441.214 262.257C448.562 260.373 456.46 257.928 464.907 254.924L463.567 251.156ZM442.712 260.462L442.992 256.542L439.002 256.258L438.722 260.178L442.712 260.462ZM667.812 215.52V217.52H669.812V215.52H667.812ZM637.292 215.52L635.308 215.772L635.53 217.52H637.292V215.52ZM617.132 230.36L617.587 228.412L617.578 228.41L617.132 230.36ZM545.172 271.8V269.8H543.068L543.175 271.902L545.172 271.8ZM575.692 271.8L577.684 271.624L577.523 269.8H575.692V271.8ZM607.332 256.4L607.81 254.458L607.81 254.458L607.332 256.4ZM667.812 213.52H637.292V217.52H667.812V213.52ZM639.276 215.268C638.097 205.983 634.277 199.664 628.269 195.749C622.367 191.903 614.625 190.56 605.932 190.56V194.56C614.319 194.56 621.138 195.877 626.085 199.101C630.927 202.256 634.247 207.417 635.308 215.772L639.276 215.268ZM605.932 190.56C597.603 190.56 590.729 192.133 585.871 195.294C580.915 198.519 578.172 203.339 578.172 209.36H582.172C582.172 204.741 584.19 201.161 588.053 198.646C592.016 196.067 598.021 194.56 605.932 194.56V190.56ZM578.172 209.36C578.172 213.331 579.115 216.573 581.07 219.223C583.003 221.843 585.789 223.697 589.137 225.158C592.477 226.616 596.515 227.742 601.091 228.828C605.624 229.903 610.969 231.001 616.686 232.31L617.578 228.41C611.675 227.059 606.59 226.022 602.015 224.936C597.482 223.86 593.733 222.799 590.737 221.492C587.751 220.188 585.654 218.699 584.288 216.848C582.944 215.027 582.172 212.669 582.172 209.36H578.172ZM616.678 232.308C629.379 235.271 643.041 238.292 653.574 244.442C658.799 247.493 663.168 251.271 666.236 256.118C669.295 260.95 671.132 266.959 671.132 274.6H675.132C675.132 266.281 673.12 259.515 669.616 253.979C666.121 248.457 661.215 244.272 655.591 240.988C644.424 234.468 630.086 231.329 617.587 228.412L616.678 232.308ZM671.132 274.6C671.132 288.538 665.332 299.846 654.916 307.725C644.442 315.647 629.16 320.2 610.132 320.2V324.2C629.744 324.2 645.962 319.513 657.329 310.915C668.752 302.274 675.132 289.782 675.132 274.6H671.132ZM610.132 320.2C589.939 320.2 574.618 315.907 564.178 307.81C553.803 299.762 547.986 287.753 547.17 271.698L543.175 271.902C544.038 288.887 550.261 302.078 561.726 310.97C573.126 319.813 589.446 324.2 610.132 324.2V320.2ZM545.172 273.8H575.692V269.8H545.172V273.8ZM573.7 271.976C574.582 281.978 578.597 289.335 585.19 294.137C591.712 298.887 600.516 300.96 610.692 300.96V296.96C600.989 296.96 593.132 294.973 587.545 290.903C582.027 286.885 578.482 280.662 577.684 271.624L573.7 271.976ZM610.692 300.96C620.328 300.96 628.527 298.879 634.382 294.951C640.302 290.979 643.772 285.134 643.772 277.96H639.772C639.772 283.666 637.083 288.321 632.153 291.629C627.158 294.981 619.816 296.96 610.692 296.96V300.96ZM643.772 277.96C643.772 273.915 642.632 270.591 640.537 267.861C638.47 265.168 635.568 263.177 632.236 261.594C625.661 258.47 616.748 256.658 607.81 254.458L606.854 258.342C616.116 260.622 624.423 262.31 630.519 265.206C633.521 266.633 635.817 268.282 637.364 270.297C638.882 272.274 639.772 274.725 639.772 277.96H643.772ZM607.81 254.458C591.117 250.355 576.715 247.345 566.378 241.564C561.277 238.712 557.283 235.238 554.549 230.716C551.817 226.198 550.252 220.483 550.252 213H546.252C546.252 221.057 547.943 227.522 551.126 232.786C554.307 238.047 558.887 241.958 564.426 245.056C575.369 251.175 590.507 254.325 606.855 258.342L607.81 254.458ZM550.252 213C550.252 199.886 555.504 189.575 565.12 182.479C574.811 175.328 589.11 171.32 607.332 171.32V167.32C588.594 167.32 573.354 171.432 562.745 179.261C552.061 187.145 546.252 198.674 546.252 213H550.252ZM607.332 171.32C623.627 171.32 638.301 174.641 648.839 181.79C659.274 188.868 665.812 199.795 665.812 215.52H669.812C669.812 198.485 662.631 186.312 651.085 178.48C639.644 170.719 624.078 167.32 607.332 167.32V171.32ZM769.048 173.52H771.048V171.52H769.048V173.52ZM769.048 196.76V198.76H771.048V196.76H769.048ZM739.928 196.76V194.76H737.928V196.76H739.928ZM769.048 293.08H771.048V290.831L768.814 291.094L769.048 293.08ZM769.048 318.28L769.281 320.266L771.048 320.058V318.28H769.048ZM708.008 196.76H710.008V194.76H708.008V196.76ZM683.928 196.76H681.928V198.76H683.928V196.76ZM683.928 173.52V171.52H681.928V173.52H683.928ZM708.008 173.52V175.52H710.008V173.52H708.008ZM708.008 130.12V128.12H706.008V130.12H708.008ZM739.928 130.12H741.928V128.12H739.928V130.12ZM739.928 173.52H737.928V175.52H739.928V173.52ZM767.048 173.52V196.76H771.048V173.52H767.048ZM769.048 194.76H739.928V198.76H769.048V194.76ZM737.928 196.76V272.92H741.928V196.76H737.928ZM737.928 272.92C737.928 276.309 737.908 279.429 738.155 282.128C738.401 284.828 738.929 287.331 740.162 289.436C742.768 293.884 747.91 295.64 756.448 295.64V291.64C748.185 291.64 745.067 289.896 743.613 287.414C742.816 286.054 742.364 284.234 742.138 281.764C741.912 279.291 741.928 276.391 741.928 272.92H737.928ZM756.448 295.64C760.93 295.64 764.394 295.641 769.281 295.066L768.814 291.094C764.181 291.639 760.925 291.64 756.448 291.64V295.64ZM767.048 293.08V318.28H771.048V293.08H767.048ZM768.814 316.294C759.405 317.401 755.573 317.4 747.488 317.4V321.4C755.642 321.4 759.65 321.399 769.281 320.266L768.814 316.294ZM747.488 317.4C737.124 317.4 729.717 316.1 724.402 313.775C719.156 311.48 715.888 308.162 713.79 303.919C711.655 299.6 710.68 294.217 710.266 287.733C709.851 281.242 710.008 273.897 710.008 265.64H706.008C706.008 273.763 705.849 281.328 706.274 287.988C706.7 294.655 707.72 300.665 710.205 305.691C712.727 310.793 716.704 314.773 722.798 317.439C728.823 320.075 736.851 321.4 747.488 321.4V317.4ZM710.008 265.64V196.76H706.008V265.64H710.008ZM708.008 194.76H683.928V198.76H708.008V194.76ZM685.928 196.76V173.52H681.928V196.76H685.928ZM683.928 175.52H708.008V171.52H683.928V175.52ZM710.008 173.52V130.12H706.008V173.52H710.008ZM708.008 132.12H739.928V128.12H708.008V132.12ZM737.928 130.12V173.52H741.928V130.12H737.928ZM739.928 175.52H769.048V171.52H739.928V175.52Z" fill="black" mask="url(#path-3-outside-2_83_237)"/>
</svg>
