<svg width="98" height="32" viewBox="0 0 98 32" fill="none" xmlns="http://www.w3.org/2000/svg">
<path d="M35.6307 1.17322L22.9336 32.006H14.3029L7 6.19654C12.2282 9.6609 16.6266 15.2039 18.2033 18.9281L19.1162 22.1326L27 1H35.6307V1.17322ZM39.0332 1H47L41.9378 32.006H33.971L39.0332 1Z" fill="#F3F1EB"/>
<path d="M91.385 0.520425H85.26C83.3817 0.520425 81.9933 1.12759 81.095 3.12256L69.335 31.5725H77.665C77.665 31.5725 79.135 27.756 79.38 26.8887H89.5883C89.915 27.9295 90.5683 31.4858 90.5683 31.4858H98L91.385 0.607165V0.520425ZM81.6667 20.4701C82.4017 18.6486 84.8517 11.7963 84.8517 11.7963C84.8517 11.9698 85.5867 9.97483 85.8317 8.93398L86.4033 11.7096L88.2817 20.7303H81.6667V20.5568V20.4701ZM69.9067 21.3375C69.9067 27.756 64.435 32.0062 56.0233 32.0062C52.43 32.0062 49 31.2256 47.1217 30.3582L48.265 23.3324L49.245 23.7661C51.8583 24.9804 53.5733 25.4141 56.6767 25.4141C58.9633 25.4141 61.4133 24.46 61.4133 22.3783C61.4133 20.9905 60.4333 20.1231 57.2483 18.5619C54.2267 17.0006 50.225 14.5719 50.225 10.235C50.225 4.16341 55.7783 0 63.7 0C66.7217 0 69.2533 0.607166 70.8867 1.3878L69.7433 8.0666L69.1717 7.45944C67.7017 6.85228 65.905 6.24511 63.1283 6.24511C60.1067 6.41859 58.7183 7.80639 58.7183 9.02071C58.7183 10.4085 60.4333 11.4494 63.1283 12.8372C67.7017 15.0923 69.825 17.6945 69.825 21.3375H69.9067ZM0 0.78064L0.163333 0.173475H12.495C14.21 0.173475 15.5167 0.78064 15.925 2.77561L18.62 16.4802C15.925 9.1942 9.555 3.20929 0 0.78064Z" fill="#F3F1EB"/>
</svg>
