<svg width="26" height="26" viewBox="0 0 26 26" fill="none" xmlns="http://www.w3.org/2000/svg">
<path d="M23.296 19.9125H20.8238C19.8889 19.9125 19.6073 19.1553 17.9313 17.4783C16.4667 16.0667 15.8481 15.8912 15.4776 15.8912C14.9652 15.8912 14.8254 16.032 14.8254 16.7373V18.9603C14.8254 19.5615 14.6304 19.9136 13.0596 19.9136C11.5357 19.8112 10.0578 19.3483 8.74788 18.5629C7.43792 17.7775 6.3333 16.6921 5.525 15.3961C3.60575 13.0074 2.27035 10.2038 1.625 7.20829C1.625 6.83779 1.76583 6.50196 2.47217 6.50196H4.94217C5.577 6.50196 5.80558 6.78471 6.05475 7.43796C7.254 10.9675 9.30042 14.0376 10.1313 14.0376C10.4498 14.0376 10.5885 13.8968 10.5885 13.1027V9.46704C10.4834 7.80846 9.60267 7.66871 9.60267 7.06854C9.61381 6.9102 9.68624 6.76244 9.80457 6.65665C9.92291 6.55086 10.0778 6.49536 10.2364 6.50196H14.1191C14.6499 6.50196 14.8254 6.76629 14.8254 7.40112V12.3086C14.8254 12.8384 15.0529 13.0139 15.2133 13.0139C15.5318 13.0139 15.7766 12.8384 16.3605 12.2555C17.6121 10.7291 18.6347 9.02847 19.396 7.20721C19.4739 6.98854 19.6212 6.80136 19.8155 6.67423C20.0097 6.54709 20.2402 6.48697 20.4718 6.50304H22.9428C23.6838 6.50304 23.8409 6.87354 23.6838 7.40221C22.7851 9.41549 21.673 11.3266 20.3667 13.1027C20.1002 13.509 19.994 13.7202 20.3667 14.1969C20.6115 14.5674 21.4782 15.291 22.0599 15.979C22.9071 16.824 23.6102 17.8011 24.1421 18.8715C24.3544 19.5605 24.0013 19.9125 23.296 19.9125Z" fill="#F3F1EB"/>
</svg>
